<?xml version="1.0" encoding="UTF-8"?>
<svg xmlns="http://www.w3.org/2000/svg" width="210mm" height="148mm" viewBox="0 0 210 148">
  <g id="layer0">
    <path id="sk_0_0" style="fill:none;stroke:black;stroke-width:0.19" d="M 0.00 0.00 L 0.00 0.00"/>
    <path id="sk_0_1" style="fill:none;stroke:black;stroke-width:0.21" d="M -0.11 -0.01"/>
    <path id="sk_0_2" style="fill:none;stroke:black;stroke-width:0.19" d="M 0.00 0.00"/>
    <path id="sk_0_3" style="fill:none;stroke:black;stroke-width:0.18520599999999998" d="M -0.12 -0.01 L -0.14 -0.02 L -0.24 -0.04 L -0.37 -0.10 L -0.55 -0.16 L -0.75 -0.22 L -0.96 -0.30 L -1.06 -0.33 L -1.05 -0.37 L -0.95 -0.34 L -0.74 -0.33 L -0.54 -0.30 L -0.37 -0.26 L -0.21 -0.24 L -0.11 -0.21 L -0.01 -0.20 L 0.11 -0.22 L 0.25 -0.25 L 0.42 -0.29 L 0.57 -0.30 L 0.69 -0.30 L 0.75 -0.27 L 0.76 -0.24 L 0.75 -0.20 L 0.71 -0.17 L 0.63 -0.14"/>
    <path id="sk_1_0" style="fill:none;stroke:black;stroke-width:0.026458" d="M -0.08 0.03 L -0.15 0.04"/>
    <path id="sk_2_0" style="fill:none;stroke:black;stroke-width:0.08" d="M -0.08 0.02"/>
    <path id="sk_2_1" style="fill:none;stroke:black;stroke-width:0.07937399999999999" d="M -0.17 0.06"/>
    <path id="sk_3_0" style="fill:none;stroke:black;stroke-width:0.42" d="M 0.00 0.00 L 0.00 0.00"/>
    <path id="sk_3_1" style="fill:none;stroke:black;stroke-width:0.21" d="M 0.00 593.96"/>
    <path id="sk_3_2" style="fill:none;stroke:black;stroke-width:0.24" d="M 0.00 593.97"/>
    <path id="sk_3_3" style="fill:none;stroke:black;stroke-width:0.21" d="M 0.01 593.93 L 0.03 593.83"/>
    <path id="sk_3_4" style="fill:none;stroke:black;stroke-width:0.211664" d="M 0.03 593.83 L -0.08 593.85 L -0.02 593.74 L -0.05 593.65 L -0.10 593.53"/>
    <path id="sk_4_0" style="fill:none;stroke:black;stroke-width:0.05" d="M -0.04 -0.09 L -0.06 -0.16 L -0.07 -0.19"/>
    <path id="sk_4_1" style="fill:none;stroke:black;stroke-width:0.052916" d="M -0.09 -0.20"/>
    <path id="sk_5_0" style="fill:none;stroke:black;stroke-width:0.19" d="M 0.00 0.00 L 0.00 0.00 L 0.00 0.00"/>
    <path id="sk_5_1" style="fill:none;stroke:black;stroke-width:0.21" d="M 0.16 0.29"/>
    <path id="sk_5_2" style="fill:none;stroke:black;stroke-width:0.19" d="M 0.24 0.38 L 0.29 0.38 L 0.31 0.33 L 0.30 0.29 L 0.30 0.22 L 0.26 0.14 L 0.27 0.05 L 0.28 -0.04 L 0.31 -0.11 L 0.34 -0.16 L 0.38 -0.20 L 0.38 -0.24 L 0.40 -0.24 L 0.37 -0.23 L 0.35 -0.20 L 0.32 -0.15 L 0.29 -0.06 L 0.26 0.03"/>
    <path id="sk_5_3" style="fill:none;stroke:black;stroke-width:0.21" d="M 0.25 0.13 L 0.21 0.23"/>
    <path id="sk_5_4" style="fill:none;stroke:black;stroke-width:0.211664" d="M 0.17 0.30 L 0.12 0.33"/>
    <path id="sk_6_0" style="fill:none;stroke:black;stroke-width:0.026458" d="M -0.05 0.01"/>
    <path id="sk_7_0" style="fill:none;stroke:black;stroke-width:0.05" d="M -0.09 -0.04"/>
    <path id="sk_7_1" style="fill:none;stroke:black;stroke-width:0.052916" d="M -0.19 -0.10"/>
    <path id="sk_8_0" style="fill:none;stroke:black;stroke-width:0.08" d="M 0.00 0.00 L 0.00 0.00 L 0.00 0.01"/>
    <path id="sk_8_1" style="fill:none;stroke:black;stroke-width:0.11" d="M 0.00 0.01"/>
    <path id="sk_8_2" style="fill:none;stroke:black;stroke-width:0.13" d="M 0.15 0.09"/>
    <path id="sk_8_3" style="fill:none;stroke:black;stroke-width:0.16" d="M 0.13 0.11"/>
    <path id="sk_8_4" style="fill:none;stroke:black;stroke-width:0.19" d="M 0.19 0.15 L 0.23 0.16"/>
    <path id="sk_8_5" style="fill:none;stroke:black;stroke-width:0.16" d="M 0.30 0.17 L 0.32 0.17 L 0.34 0.14 L 0.33 0.11 L 0.31 0.06"/>
    <path id="sk_8_6" style="fill:none;stroke:black;stroke-width:0.15874799999999997" d="M 0.27 0.00 L 0.24 -0.09 L 0.25 -0.15 L 0.24 -0.21 L 0.25 -0.25 L 0.25 -0.28 L 0.25 -0.27 L 0.25 -0.26 L 0.27 -0.20 L 0.28 -0.15 L 0.30 -0.07 L 0.31 0.01 L 0.33 0.09 L 0.34 0.16 L 0.33 0.24 L 0.30 0.27 L 0.25 0.29 L 0.20 0.30 L 0.15 0.30 L 0.11 0.29 L 0.04 0.29"/>
    <path id="sk_9_0" style="fill:none;stroke:black;stroke-width:0.05" d="M -0.08 -0.03"/>
    <path id="sk_9_1" style="fill:none;stroke:black;stroke-width:0.052916" d="M -0.15 -0.08"/>
    <path id="sk_10_0" style="fill:none;stroke:black;stroke-width:0.16" d="M 0.00 0.00 L 0.00 0.00"/>
    <path id="sk_10_1" style="fill:none;stroke:black;stroke-width:0.15874799999999997" d="M -0.07 0.13 L 0.00 0.00 L -0.19 0.08 L -0.18 0.00"/>
    <path id="sk_11_0" style="fill:none;stroke:black;stroke-width:0.05" d="M -0.08 -0.04 L -0.18 -0.11 L -0.23 -0.17 L -0.23 -0.21 L -0.16 -0.23 L -0.04 -0.20 L 0.10 -0.16"/>
    <path id="sk_11_1" style="fill:none;stroke:black;stroke-width:0.052916" d="M 0.18 -0.11 L 0.25 -0.08 L 0.29 -0.05 L 0.24 0.04 L 0.39 -0.10"/>
    <path id="sk_12_0" style="fill:none;stroke:black;stroke-width:0.026458" d="M 0.01 0.02 L -0.09 0.06 L 0.04 -0.01 L -0.09 0.06 L -0.09 0.06 L -0.17 -0.06 L -0.22 -0.03"/>
    <path id="sk_13_0" style="fill:none;stroke:black;stroke-width:0.05" d="M -0.09 -0.05 L -0.10 -0.08 L -0.06 -0.07 L 0.02 -0.03"/>
    <path id="sk_13_1" style="fill:none;stroke:black;stroke-width:0.03" d="M 0.13 0.01 L 0.22 0.04 L 0.29 0.05 L 0.35 0.03 L 0.41 0.03 L 0.47 0.02 L 0.51 0.01 L 0.55 0.01"/>
    <path id="sk_13_2" style="fill:none;stroke:black;stroke-width:0.026458" d="M 0.55 -0.02 L 0.53 -0.06"/>
    <path id="sk_14_0" style="fill:none;stroke:black;stroke-width:0.026458" d="M -0.07 -0.04"/>
    <path id="sk_15_0" style="fill:none;stroke:black;stroke-width:0.05" d="M -0.09 -0.04"/>
    <path id="sk_15_1" style="fill:none;stroke:black;stroke-width:0.052916" d="M -0.18 -0.08"/>
    <path id="sk_16_0" style="fill:none;stroke:black;stroke-width:0.19" d="M 0.00 0.00 L 0.00 0.00 L 11.38 0.00"/>
    <path id="sk_16_1" style="fill:none;stroke:black;stroke-width:0.21" d="M 11.38 0.00"/>
    <path id="sk_16_2" style="fill:none;stroke:black;stroke-width:0.19" d="M 11.35 0.13 L 11.38 0.00 L 11.24 0.07 L 11.26 0.00 L 11.24 0.00 L 11.14 -0.04 L 11.04 -0.09 L 10.96 -0.16 L 10.88 -0.21 L 10.89 -0.26 L 10.91 -0.29 L 10.96 -0.30 L 11.04 -0.31 L 11.15 -0.29 L 11.28 -0.28 L 11.41 -0.25 L 11.52 -0.25 L 11.62 -0.26 L 11.72 -0.24 L 11.79 -0.24 L 11.82 -0.18"/>
    <path id="sk_16_3" style="fill:none;stroke:black;stroke-width:0.18520599999999998" d="M 11.82 -0.14 L 11.80 -0.05 L 11.78 0.04 L 11.75 0.12"/>
    <path id="sk_17_0" style="fill:none;stroke:black;stroke-width:3.65" d="M 0.00 0.00 L 0.00 0.00"/>
    <path id="sk_17_1" style="fill:none;stroke:black;stroke-width:0.19" d="M 0.00 59.20 L 0.00 59.20"/>
    <path id="sk_17_2" style="fill:none;stroke:black;stroke-width:0.21" d="M 0.00 59.20"/>
    <path id="sk_17_3" style="fill:none;stroke:black;stroke-width:0.19" d="M 0.00 59.20"/>
    <path id="sk_17_4" style="fill:none;stroke:black;stroke-width:0.16" d="M 0.00 59.20 L 0.00 59.20 L 0.00 59.20 L -0.04 59.01 L -0.02 59.03 L -0.03 58.99 L -0.06 58.94 L -0.05 58.91"/>
    <path id="sk_17_5" style="fill:none;stroke:black;stroke-width:0.05" d="M -0.02 58.93 L 0.00 58.92 L 0.08 58.96"/>
    <path id="sk_17_6" style="fill:none;stroke:black;stroke-width:0.052916" d="M 0.07 58.94"/>
    <path id="sk_18_0" style="fill:none;stroke:black;stroke-width:0.16" d="M 0.00 0.00 L 0.00 0.00 L 0.00 417.54"/>
    <path id="sk_18_1" style="fill:none;stroke:black;stroke-width:0.19" d="M 0.16 417.54"/>
    <path id="sk_18_2" style="fill:none;stroke:black;stroke-width:0.16" d="M 0.27 417.54 L 0.36 417.56 L 0.43 417.57 L 0.48 417.56 L 0.50 417.60 L 0.45 417.59 L 0.43 417.58 L 0.39 417.59 L 0.34 417.58 L 0.31 417.59 L 0.24 417.59 L 0.16 417.59"/>
    <path id="sk_18_3" style="fill:none;stroke:black;stroke-width:0.15874799999999997" d="M 0.00 417.54 L 0.00 417.54 L 0.00 417.54 L -0.17 417.52"/>
    <path id="sk_19_0" style="fill:none;stroke:black;stroke-width:0.08" d="M -0.07 -0.03 L -0.11 -0.04 L -0.11 -0.06 L -0.08 -0.05"/>
    <path id="sk_19_1" style="fill:none;stroke:black;stroke-width:0.05" d="M -0.04 -0.03 L 0.00 -0.03 L 0.03 -0.03 L 0.06 -0.04"/>
    <path id="sk_19_2" style="fill:none;stroke:black;stroke-width:0.052916" d="M 0.07 -0.05 L 0.09 -0.07 L 0.10 -0.10 L 0.13 -0.11 L 0.15 -0.13 L 0.16 -0.14 L 0.18 -0.11 L 0.17 -0.13"/>
    <path id="sk_20_0" style="fill:none;stroke:black;stroke-width:0.00" d="M -0.01 0.02 L -0.06 -0.86 L -0.07 -0.86 L -0.08 -0.85 L -0.12 -0.84 L -0.12 -0.85 L -0.16 -0.84 L -0.21 -0.86"/>
    <path id="sk_20_1" style="fill:none;stroke:black;stroke-width:0.05" d="M -0.28 -0.85 L -0.36 -0.85 L -0.49 -0.85"/>
    <path id="sk_20_2" style="fill:none;stroke:black;stroke-width:0.052916" d="M -0.59 -0.84"/>
    <path id="sk_21_0" style="fill:none;stroke:black;stroke-width:0.11" d="M 0.00 0.00 L 0.00 0.00 L 0.39 0.00 L 484.22 593.93"/>
    <path id="sk_21_1" style="fill:none;stroke:black;stroke-width:0.13" d="M 484.27 593.94"/>
    <path id="sk_21_2" style="fill:none;stroke:black;stroke-width:0.16" d="M 484.38 593.95"/>
    <path id="sk_21_3" style="fill:none;stroke:black;stroke-width:0.19" d="M 484.51 593.95 L 484.62 593.96"/>
    <path id="sk_21_4" style="fill:none;stroke:black;stroke-width:0.21" d="M 484.75 593.97"/>
    <path id="sk_21_5" style="fill:none;stroke:black;stroke-width:0.19" d="M 484.85 593.96"/>
    <path id="sk_21_6" style="fill:none;stroke:black;stroke-width:0.16" d="M 484.95 593.95 L 485.03 593.95 L 485.03 593.96 L 484.98 593.96 L 484.87 593.98 L 484.73 593.98 L 484.60 593.96 L 484.46 593.95 L 484.36 593.92"/>
    <path id="sk_21_7" style="fill:none;stroke:black;stroke-width:0.13" d="M 484.27 593.92"/>
    <path id="sk_21_8" style="fill:none;stroke:black;stroke-width:0.08" d="M 484.05 593.96"/>
    <path id="sk_21_9" style="fill:none;stroke:black;stroke-width:0.07937399999999999" d="M 484.05 593.96"/>
    <path id="sk_22_0" style="fill:none;stroke:black;stroke-width:1.08" d="M 0.00 0.00 L 0.00 0.00"/>
    <path id="sk_22_1" style="fill:none;stroke:black;stroke-width:0.19" d="M 0.39 0.00 L 0.39 0.00 L 0.39 0.00 L 0.34 -0.11 L 0.35 -0.12 L 0.34 -0.21 L 0.33 -0.31 L 0.31 -0.41 L 0.31 -0.52 L 0.30 -0.62 L 0.32 -0.68 L 0.33 -0.72"/>
    <path id="sk_22_2" style="fill:none;stroke:black;stroke-width:0.16" d="M 0.36 -0.69"/>
    <path id="sk_22_3" style="fill:none;stroke:black;stroke-width:0.11" d="M 0.42 -0.68"/>
    <path id="sk_22_4" style="fill:none;stroke:black;stroke-width:0.05" d="M 0.46 -0.63"/>
    <path id="sk_22_5" style="fill:none;stroke:black;stroke-width:0.052916" d="M 0.52 -0.53"/>
    <path id="sk_23_0" style="fill:none;stroke:black;stroke-width:0.19" d="M 0.00 0.00 L 0.00 0.00 L 99.88 -0.18"/>
    <path id="sk_23_1" style="fill:none;stroke:black;stroke-width:0.21" d="M 99.93 -0.06"/>
    <path id="sk_23_2" style="fill:none;stroke:black;stroke-width:0.24" d="M 99.91 -0.06"/>
    <path id="sk_23_3" style="fill:none;stroke:black;stroke-width:0.21" d="M 99.88 -0.18"/>
    <path id="sk_23_4" style="fill:none;stroke:black;stroke-width:0.211664" d="M 99.77 -0.23 L 99.74 -0.30"/>
    <path id="sk_24_0" style="fill:none;stroke:black;stroke-width:0.026458" d="M -0.09 -0.11 L -0.20 -0.26 L -0.23 -0.38"/>
    <path id="sk_25_0" style="fill:none;stroke:black;stroke-width:0.19" d="M 0.00 -0.09 L -0.02 -0.14"/>
    <path id="sk_25_1" style="fill:none;stroke:black;stroke-width:0.13" d="M -0.01 -0.17"/>
    <path id="sk_25_2" style="fill:none;stroke:black;stroke-width:0.08" d="M 0.03 -0.17"/>
    <path id="sk_25_3" style="fill:none;stroke:black;stroke-width:0.07937399999999999" d="M 0.05 -0.15"/>
    <path id="sk_26_0" style="fill:none;stroke:black;stroke-width:0.08" d="M 0.00 0.00"/>
    <path id="sk_26_1" style="fill:none;stroke:black;stroke-width:0.07937399999999999" d="M 111.35 84.52 L 111.40 84.69"/>
    <path id="sk_27_0" style="fill:none;stroke:black;stroke-width:0.16" d="M -0.04 0.02"/>
    <path id="sk_27_1" style="fill:none;stroke:black;stroke-width:0.19" d="M -0.07 0.00"/>
    <path id="sk_27_2" style="fill:none;stroke:black;stroke-width:0.21" d="M -0.10 0.00"/>
    <path id="sk_27_3" style="fill:none;stroke:black;stroke-width:0.19" d="M -0.15 -0.03"/>
    <path id="sk_27_4" style="fill:none;stroke:black;stroke-width:0.18520599999999998" d="M -0.19 -0.05 L -0.30 -0.08 L -0.43 -0.12 L -0.63 -0.14 L -0.86 -0.18 L -1.12 -0.23 L -1.31 -0.28"/>
    <path id="sk_28_0" style="fill:none;stroke:black;stroke-width:0.03" d="M 0.12 -0.06 L 0.42 -0.09 L 0.73 -0.10 L 1.02 -0.09"/>
    <path id="sk_28_1" style="fill:none;stroke:black;stroke-width:0.00" d="M 1.24 -0.08 L 1.40 -0.10 L 1.58 -0.14 L 1.79 -0.16 L 2.04 -0.19 L 2.22 -0.18 L 2.33 -0.11 L 2.39 -0.05"/>
    <path id="sk_28_2" style="fill:none;stroke:black;stroke-width:0.05" d="M 2.37 0.06 L 2.32 0.15 L 2.25 0.25"/>
    <path id="sk_28_3" style="fill:none;stroke:black;stroke-width:0.052916" d="M 2.15 0.33"/>
    <path id="sk_29_0" style="fill:none;stroke:black;stroke-width:0.16" d="M 0.00 0.00"/>
    <path id="sk_29_1" style="fill:none;stroke:black;stroke-width:0.19" d="M 106.80 83.43"/>
    <path id="sk_29_2" style="fill:none;stroke:black;stroke-width:0.16" d="M 106.70 83.41 L 106.69 83.38 L 106.80 83.43 L 106.68 83.24 L 106.76 83.27 L 106.76 83.22 L 106.77 83.18 L 106.77 83.14 L 106.77 83.09 L 106.78 83.06"/>
    <path id="sk_29_3" style="fill:none;stroke:black;stroke-width:0.05" d="M 106.81 83.03 L 106.85 83.02"/>
    <path id="sk_29_4" style="fill:none;stroke:black;stroke-width:0.052916" d="M 106.88 82.99"/>
    <path id="sk_30_0" style="fill:none;stroke:black;stroke-width:0.16" d="M 0.00 0.00"/>
    <path id="sk_30_1" style="fill:none;stroke:black;stroke-width:0.19" d="M 105.56 78.50"/>
    <path id="sk_30_2" style="fill:none;stroke:black;stroke-width:0.18520599999999998" d="M 105.25 78.50"/>
    <path id="sk_31_0" style="fill:none;stroke:black;stroke-width:0.026458" d="M 0.10 -0.06 L 0.19 -0.10 L 0.30 -0.12 L 0.40 -0.13 L 0.49 -0.12 L 0.56 -0.14 L 0.64 -0.14 L 0.70 -0.15 L 0.73 -0.15 L 0.72 -0.13 L 0.68 -0.11 L 0.60 -0.11 L 0.53 -0.11 L 0.45 -0.11 L 0.36 -0.14 L 0.27 -0.15 L 0.14 -0.18 L 0.04 -0.19 L -0.06 -0.23 L -0.10 -0.24 L -0.09 -0.23 L -0.05 -0.21 L 0.01 -0.20 L 0.08 -0.15 L 0.17 -0.11 L 0.27 -0.08 L 0.37 0.05 L 0.49 -0.10 L 0.56 -0.03 L 0.62 -0.01 L 0.66 -0.03 L 0.70 -0.03 L 0.70 0.00 L 0.71 0.00 L 0.70 0.03"/>
    <path id="sk_32_0" style="fill:none;stroke:black;stroke-width:0.026458" d="M -0.04 0.01"/>
    <path id="sk_33_0" style="fill:none;stroke:black;stroke-width:0.026458" d="M -0.11 0.02 L -0.11 0.02 L -0.05 -0.10"/>
    <path id="sk_34_0" style="fill:none;stroke:black;stroke-width:0.05" d="M -0.10 -0.11"/>
    <path id="sk_34_1" style="fill:none;stroke:black;stroke-width:0.052916" d="M -0.08 -0.10"/>
    <path id="sk_35_0" style="fill:none;stroke:black;stroke-width:0.03" d="M 0.00 0.00 L 0.00 0.00 L -0.30 0.23"/>
    <path id="sk_35_1" style="fill:none;stroke:black;stroke-width:0.05" d="M 430.08 0.23 L 430.17 0.14 L 430.18 0.24 L 430.26 0.19 L 430.33 0.22 L 430.39 0.23 L 430.46 0.27 L 430.52 0.28 L 430.57 0.30 L 430.62 0.33 L 430.64 0.33 L 430.64 0.34 L 430.64 0.32 L 430.62 0.32 L 430.63 -0.56 L 430.60 -0.57"/>
    <path id="sk_35_2" style="fill:none;stroke:black;stroke-width:0.08" d="M 430.58 -0.59 L 430.55 -0.57"/>
    <path id="sk_35_3" style="fill:none;stroke:black;stroke-width:0.07937399999999999" d="M 430.53 -0.55"/>
    <path id="sk_36_0" style="fill:none;stroke:black;stroke-width:0.03" d="M -0.07 -0.10 L -0.04 -0.01 L -0.07 -0.10 L -0.18 -0.08 L -0.19 -0.11 L -0.30 -0.15 L -0.43 -0.20"/>
    <path id="sk_36_1" style="fill:none;stroke:black;stroke-width:0.05" d="M -0.56 -0.24"/>
    <path id="sk_36_2" style="fill:none;stroke:black;stroke-width:0.03" d="M -0.72 -0.30 L -0.82 -0.36 L -0.90 -0.41 L -0.93 -0.46 L -0.86 -0.46 L -0.74 -0.46 L -0.58 -0.44 L -0.42 -0.41"/>
    <path id="sk_36_3" style="fill:none;stroke:black;stroke-width:0.05" d="M -0.27 -0.41 L -0.12 -0.37 L 0.03 -0.37 L 0.20 -0.37 L 0.37 -0.38"/>
    <path id="sk_36_4" style="fill:none;stroke:black;stroke-width:0.03" d="M 0.55 -0.41 L 0.69 -0.40"/>
    <path id="sk_36_5" style="fill:none;stroke:black;stroke-width:0.00" d="M 0.76 -0.36 L 0.78 -0.31 L 0.78 -0.26 L 0.71 -0.18 L 0.64 -0.12 L 0.56 -0.05 L 0.43 -0.01 L 0.32 0.02 L 0.22 0.06 L 0.14 0.08 L 0.06 0.11"/>
    <path id="sk_36_6" style="fill:none;stroke:black;stroke-width:0.03" d="M -0.02 0.14"/>
    <path id="sk_36_7" style="fill:none;stroke:black;stroke-width:0.026458" d="M -0.12 0.15 L -0.22 0.16 L -0.31 0.17 L -0.39 0.19"/>
    <path id="sk_37_0" style="fill:none;stroke:black;stroke-width:0.08" d="M -0.04 -0.02 L -0.08 -0.05 L -0.08 -0.10 L -0.01 -0.11"/>
    <path id="sk_37_1" style="fill:none;stroke:black;stroke-width:0.05" d="M 0.05 -0.15 L 0.13 -0.19"/>
    <path id="sk_37_2" style="fill:none;stroke:black;stroke-width:0.03" d="M 0.21 -0.21 L 0.26 -0.26 L 0.29 -0.28 L 0.38 -0.26 L 0.24 -0.43"/>
    <path id="sk_37_3" style="fill:none;stroke:black;stroke-width:0.05" d="M 0.29 -0.42 L 0.26 -0.49 L 0.23 -0.54 L 0.21 -0.60 L 0.18 -0.65 L 0.15 -0.68 L 0.11 -0.70 L 0.09 -0.73 L 0.07 -0.76 L 0.07 -0.77 L 0.05 -0.80 L 0.07 -0.78"/>
    <path id="sk_37_4" style="fill:none;stroke:black;stroke-width:0.08" d="M 0.08 -0.75 L 0.09 -0.73 L 0.12 -0.66 L 0.13 -0.60 L 0.17 -0.52 L 0.22 -0.44 L 0.29 -0.35 L 0.38 -0.26 L 0.38 -0.26 L 0.45 -0.14"/>
    <path id="sk_37_5" style="fill:none;stroke:black;stroke-width:0.05" d="M 0.51 -0.07 L 0.54 -0.02 L 0.58 0.03"/>
    <path id="sk_37_6" style="fill:none;stroke:black;stroke-width:0.03" d="M 0.61 0.05 L 0.62 0.04 L 0.65 -0.01 L 0.65 -0.06 L 0.62 -0.14 L 0.62 -0.21 L 0.63 -0.26 L 0.64 -0.35 L 0.68 -0.42 L 0.69 -0.47 L 0.70 -0.53"/>
    <path id="sk_37_7" style="fill:none;stroke:black;stroke-width:0.05" d="M 0.73 -0.55"/>
    <path id="sk_37_8" style="fill:none;stroke:black;stroke-width:0.03" d="M 0.72 -0.55 L 0.70 -0.51"/>
    <path id="sk_37_9" style="fill:none;stroke:black;stroke-width:0.05" d="M 0.69 -0.46 L 0.68 -0.37 L 0.69 -0.29"/>
    <path id="sk_37_10" style="fill:none;stroke:black;stroke-width:0.052916" d="M 0.70 -0.19 L 0.69 -0.10 L 0.67 -0.03"/>
    <path id="sk_38_0" style="fill:none;stroke:black;stroke-width:0.026458" d="M -0.07 -0.02 L -0.15 -0.06 L -0.25 -0.12 L -0.34 -0.21 L -0.43 -0.30 L -0.50 -0.41 L -0.53 -0.52 L -0.51 -0.63"/>
    <path id="sk_39_0" style="fill:none;stroke:black;stroke-width:0.08" d="M 0.00 0.00 L 0.00 0.00 L -0.43 0.19 L -0.43 0.19 L -0.43 0.19 L -0.30 0.21"/>
    <path id="sk_39_1" style="fill:none;stroke:black;stroke-width:0.05" d="M -0.29 0.31 L -0.24 0.34 L -0.20 0.40"/>
    <path id="sk_39_2" style="fill:none;stroke:black;stroke-width:0.03" d="M -0.16 0.40 L -0.09 0.40 L -0.05 0.40 L -0.03 0.35 L -0.04 0.32 L -0.04 0.25 L -0.04 0.17"/>
    <path id="sk_39_3" style="fill:none;stroke:black;stroke-width:0.05" d="M -0.06 0.11 L -0.07 0.03 L -0.09 0.00 L -0.10 0.01 L -0.12 0.01 L -0.15 0.06 L -0.16 0.10 L -0.19 0.16 L -0.19 0.24 L -0.21 0.30 L -0.22 0.37 L -0.26 0.45"/>
    <path id="sk_39_4" style="fill:none;stroke:black;stroke-width:0.03" d="M -0.29 0.50 L -0.32 0.53 L -0.37 0.54"/>
    <path id="sk_39_5" style="fill:none;stroke:black;stroke-width:0.026458" d="M -0.42 0.53 L -0.50 0.51"/>
    <path id="sk_40_0" style="fill:none;stroke:black;stroke-width:0.026458" d="M -0.07 -0.05 L -0.14 -0.09 L -0.21 -0.17 L -0.25 -0.27 L -0.25 -0.36 L -0.22 -0.47 L 0.23 -0.19"/>
    <path id="sk_41_0" style="fill:none;stroke:black;stroke-width:0.03" d="M 0.00 0.00 L 0.00 0.00 L 0.42 0.00 L 0.42 430.08 L 0.42 430.08 L 0.61 429.12 L 0.61 429.12 L 0.61 429.12 L 0.59 429.12 L 0.55 429.10 L 0.51 429.07 L 0.48 429.05 L 0.43 429.02"/>
    <path id="sk_41_1" style="fill:none;stroke:black;stroke-width:0.05" d="M 0.38 429.00 L 0.34 428.98 L 0.30 428.96 L 0.30 428.94 L 0.32 428.95 L 0.38 428.95 L 0.45 428.98 L 0.47 429.01 L 0.50 429.02 L 0.52 429.02 L 0.55 429.05 L 0.59 429.07"/>
    <path id="sk_41_2" style="fill:none;stroke:black;stroke-width:0.03" d="M 0.71 429.17 L 0.60 429.05 L 0.71 429.17 L 0.71 429.17 L 0.71 429.17"/>
    <path id="sk_41_3" style="fill:none;stroke:black;stroke-width:0.026458" d="M 0.71 429.17 L 0.71 429.17 L 0.81 429.20 L 0.71 429.17 L 0.71 429.17 L 0.71 429.17 L 0.71 429.17 L 0.71 429.17 L 0.71 429.17 L 0.71 429.17 L 0.71 429.17 L 0.80 429.10 L 0.71 429.17 L 0.82 429.09 L 0.81 429.13 L 0.85 429.12 L 0.85 429.12 L 0.88 429.12 L 0.92 429.11 L 0.94 429.12 L 1.00 429.13 L 1.04 429.15 L 1.06 429.15 L 1.09 429.17 L 1.11 429.16 L 1.12 429.16 L 1.10 429.17 L 1.08 429.18 L 1.04 429.18 L 1.01 429.17 L 0.98 429.19 L 0.93 429.19 L 0.86 429.19"/>
    <path id="sk_42_0" style="fill:none;stroke:black;stroke-width:0.03" d="M -0.09 0.00 L -0.09 0.00"/>
    <path id="sk_42_1" style="fill:none;stroke:black;stroke-width:0.05" d="M -0.17 -0.09 L -0.21 -0.05 L -0.31 -0.09 L -0.40 -0.14 L -0.53 -0.18 L -0.63 -0.22 L -0.70 -0.26 L -0.74 -0.27 L -0.73 -0.27"/>
    <path id="sk_42_2" style="fill:none;stroke:black;stroke-width:0.03" d="M -0.65 -0.28 L -0.54 -0.25 L -0.39 -0.20 L -0.26 -0.16"/>
    <path id="sk_42_3" style="fill:none;stroke:black;stroke-width:0.05" d="M -0.15 -0.11"/>
    <path id="sk_42_4" style="fill:none;stroke:black;stroke-width:0.052916" d="M -0.07 -0.11 L 0.03 -0.10 L 0.15 -0.09 L 0.26 -0.06 L 0.36 -0.04 L 0.41 0.01 L 0.40 0.04 L 0.40 0.05"/>
    <path id="sk_43_0" style="fill:none;stroke:black;stroke-width:0.052916" d="M -0.08 0.01"/>
    <path id="sk_44_0" style="fill:none;stroke:black;stroke-width:0.03" d="M -0.11 -0.02 L -0.20 -0.03"/>
    <path id="sk_44_1" style="fill:none;stroke:black;stroke-width:0.00" d="M -0.29 -0.06 L -0.29 -0.06 L -0.49 -0.18"/>
    <path id="sk_44_2" style="fill:none;stroke:black;stroke-width:0" d="M -0.52 -0.12"/>
    <path id="sk_45_0" style="fill:none;stroke:black;stroke-width:0.052916" d="M -0.01 -0.02 L 0.00 -0.04 L 0.04 -0.06"/>
    <path id="sk_46_0" style="fill:none;stroke:black;stroke-width:6.67" d="M 0.00 0.00 L 0.00 0.00"/>
    <path id="sk_46_1" style="fill:none;stroke:black;stroke-width:0.11" d="M 2.98 0.00 L 2.98 0.00 L 2.98 0.00"/>
    <path id="sk_46_2" style="fill:none;stroke:black;stroke-width:0.13" d="M 2.98 0.00"/>
    <path id="sk_46_3" style="fill:none;stroke:black;stroke-width:0.19" d="M 2.87 -0.06"/>
    <path id="sk_46_4" style="fill:none;stroke:black;stroke-width:0.21" d="M 2.98 0.00"/>
    <path id="sk_46_5" style="fill:none;stroke:black;stroke-width:0.24" d="M 2.80 -0.05"/>
    <path id="sk_46_6" style="fill:none;stroke:black;stroke-width:0.238122" d="M 2.84 -0.07 L 2.79 -0.10"/>
    <path id="sk_47_0" style="fill:none;stroke:black;stroke-width:0.026458" d="M -0.08 -0.04 L -0.16 -0.11 L -0.26 -0.17"/>
    <path id="sk_48_0" style="fill:none;stroke:black;stroke-width:0.05" d="M 0.09 -0.01 L 0.23 0.04 L 0.38 0.10 L 0.52 0.19 L 0.64 0.27 L 0.77 0.33 L 0.93 0.38 L 1.08 0.43 L 1.23 0.51 L 1.32 0.57 L 1.35 0.64 L 1.32 0.68 L 1.23 0.71 L 1.14 0.71 L 1.02 0.71 L 0.91 0.68 L 0.82 0.66"/>
    <path id="sk_48_1" style="fill:none;stroke:black;stroke-width:0.052916" d="M 0.69 0.63"/>
    <path id="sk_49_0" style="fill:none;stroke:black;stroke-width:0.052916" d="M 0.00 0.00 L 0.00 0.00"/>
    <path id="sk_50_0" style="fill:none;stroke:black;stroke-width:0.19" d="M -0.13 -0.10"/>
    <path id="sk_50_1" style="fill:none;stroke:black;stroke-width:0.21" d="M 0.00 0.00"/>
    <path id="sk_50_2" style="fill:none;stroke:black;stroke-width:0.211664" d="M 0.00 -0.10 L 0.01 -0.09 L 0.03 -0.13"/>
    <path id="sk_51_0" style="fill:none;stroke:black;stroke-width:0.05" d="M 0.02 -0.09 L 0.01 -0.15 L 0.01 -0.19 L -0.02 -0.15 L -0.04 -0.09 L -0.02 -0.01"/>
    <path id="sk_51_1" style="fill:none;stroke:black;stroke-width:0.052916" d="M -0.01 0.04"/>
    <path id="sk_52_0" style="fill:none;stroke:black;stroke-width:0.03" d="M 0.00 0.00 L 0.00 0.00 L 0.00 0.00 L 0.00 0.00 L 0.00 0.00 L -0.15 -0.01 L -0.12 -0.04 L -0.15 -0.07"/>
    <path id="sk_52_1" style="fill:none;stroke:black;stroke-width:0.05" d="M -0.17 -0.07 L -0.16 -0.08 L -0.16 -0.07"/>
    <path id="sk_52_2" style="fill:none;stroke:black;stroke-width:0.052916" d="M -0.15 -0.05"/>
    <path id="sk_53_0" style="fill:none;stroke:black;stroke-width:0.13" d="M 0.00 0.00 L 0.00 0.00 L 0.00 0.41 L -0.02 0.32 L 0.00 0.41"/>
    <path id="sk_53_1" style="fill:none;stroke:black;stroke-width:0.16" d="M 0.15 0.38"/>
    <path id="sk_53_2" style="fill:none;stroke:black;stroke-width:0.19" d="M 0.15 0.42"/>
    <path id="sk_53_3" style="fill:none;stroke:black;stroke-width:0.21" d="M 0.20 0.42"/>
    <path id="sk_53_4" style="fill:none;stroke:black;stroke-width:0.24" d="M 0.26 0.41"/>
    <path id="sk_53_5" style="fill:none;stroke:black;stroke-width:0.21" d="M 0.31 0.39 L 0.38 0.39 L 0.46 0.39"/>
    <path id="sk_53_6" style="fill:none;stroke:black;stroke-width:0.211664" d="M 0.46 0.39 L 0.47 0.40 L 0.42 0.38 L 0.35 0.39"/>
    <path id="sk_54_0" style="fill:none;stroke:black;stroke-width:0.026458" d="M -0.08 -0.02"/>
    <path id="sk_55_0" style="fill:none;stroke:black;stroke-width:0.026458" d="M -0.08 -0.01 L -0.16 -0.01"/>
    <path id="sk_56_0" style="fill:none;stroke:black;stroke-width:0.03" d="M -0.05 0.00 L -0.09 0.00 L -0.13 -0.01 L -0.16 -0.02 L -0.21 -0.04 L -0.24 -0.06 L -0.22 -0.07 L -0.14 -0.05 L -0.05 -0.01 L 0.05 0.00 L 0.11 0.04 L 0.16 0.04 L 0.19 0.05"/>
    <path id="sk_56_1" style="fill:none;stroke:black;stroke-width:0.026458" d="M 0.25 0.15"/>
    <path id="sk_57_0" style="fill:none;stroke:black;stroke-width:0.16" d="M 0.06 0.15 L 0.05 0.06 L 0.06 0.15 L 0.06 0.15"/>
    <path id="sk_57_1" style="fill:none;stroke:black;stroke-width:0.13" d="M 0.06 0.15"/>
    <path id="sk_57_2" style="fill:none;stroke:black;stroke-width:0.05" d="M -0.07 0.09"/>
    <path id="sk_57_3" style="fill:none;stroke:black;stroke-width:0.052916" d="M -0.07 0.14"/>
    <path id="sk_58_0" style="fill:none;stroke:black;stroke-width:0.08" d="M 0.00 0.00 L 0.00 0.00 L 2.75 0.00"/>
    <path id="sk_58_1" style="fill:none;stroke:black;stroke-width:0.11" d="M 2.65 0.00"/>
    <path id="sk_58_2" style="fill:none;stroke:black;stroke-width:0.16" d="M 2.64 0.01"/>
    <path id="sk_58_3" style="fill:none;stroke:black;stroke-width:0.19" d="M 2.66 -0.01"/>
    <path id="sk_58_4" style="fill:none;stroke:black;stroke-width:0.21" d="M 2.75 0.00"/>
    <path id="sk_58_5" style="fill:none;stroke:black;stroke-width:0.19" d="M 2.66 -0.03 L 2.75 0.00 L 2.79 -0.10 L 2.86 -0.08 L 2.92 -0.13 L 3.05 -0.18 L 3.16 -0.24 L 3.29 -0.32 L 3.39 -0.42 L 3.41 -0.50 L 3.40 -0.58 L 3.32 -0.62"/>
    <path id="sk_58_6" style="fill:none;stroke:black;stroke-width:0.18520599999999998" d="M 3.23 -0.63 L 3.14 -0.58 L 3.04 -0.51 L 2.95 -0.42 L 3.31 0.07 L 2.78 -0.23"/>
  </g>
</svg>
