<?xml version="1.0" encoding="UTF-8"?>
<svg xmlns="http://www.w3.org/2000/svg" width="210mm" height="148mm" viewBox="0 0 210 148">
  <g id="layer0">
    <path id="sk_0_0" style="fill:none;stroke:black;stroke-width:0.11" d="M 140.93 101.55 L 140.82 101.66"/>
    <path id="sk_0_1" style="fill:none;stroke:black;stroke-width:0.13" d="M 140.68 101.82"/>
    <path id="sk_0_2" style="fill:none;stroke:black;stroke-width:0.11" d="M 140.56 101.98 L 140.46 102.11 L 140.40 102.23 L 140.35 102.32 L 140.35 102.32 L 140.30 102.48 L 140.29 102.58 L 140.30 102.70 L 140.31 102.83 L 140.31 102.98 L 140.34 103.15 L 140.37 103.33 L 140.42 103.54 L 140.49 103.79 L 140.59 104.07 L 140.76 104.41 L 140.98 104.82 L 141.26 105.28 L 141.59 105.81 L 141.93 106.34 L 142.27 106.88 L 142.59 107.40 L 142.89 107.90 L 143.18 108.37 L 143.46 108.80 L 143.74 109.19 L 144.02 109.54 L 144.27 109.85 L 144.54 110.15 L 144.80 110.42 L 145.07 110.68 L 145.36 110.92 L 145.65 111.14 L 145.96 111.37 L 146.32 111.60 L 146.75 111.83 L 147.28 112.07 L 147.90 112.32 L 148.60 112.58 L 149.38 112.85 L 150.19 113.13 L 151.03 113.40 L 151.85 113.65 L 152.61 113.87 L 153.29 114.06 L 153.88 114.19 L 154.39 114.27 L 154.85 114.30 L 155.24 114.28 L 155.58 114.20 L 155.95 114.06 L 156.27 113.87 L 156.60 113.64 L 156.89 113.37 L 157.14 113.05 L 157.37 112.68 L 157.59 112.22 L 157.79 111.68 L 157.97 111.05 L 158.13 110.34 L 158.25 109.55 L 158.33 108.70 L 158.36 107.82 L 158.36 106.90 L 158.32 105.98 L 158.26 105.04 L 158.18 104.10 L 158.07 103.15 L 157.94 102.20 L 157.80 101.24 L 157.63 100.29 L 157.46 99.36 L 157.29 98.49 L 157.10 97.65 L 156.90 96.85 L 156.68 96.11 L 156.43 95.43 L 156.16 94.83 L 155.86 94.28 L 155.54 93.79 L 155.19 93.36 L 154.83 92.97 L 154.41 92.65 L 153.96 92.38 L 153.46 92.16 L 152.90 91.98 L 152.27 91.86 L 151.58 91.80 L 150.85 91.80 L 150.11 91.87 L 149.37 92.01 L 148.64 92.24 L 147.92 92.55 L 147.23 92.94 L 146.57 93.41 L 145.92 93.93 L 145.29 94.49 L 144.69 95.09 L 144.14 95.71 L 143.67 96.38 L 143.25 97.04 L 142.88 97.69 L 142.54 98.31 L 142.23 98.90 L 141.96 99.47 L 141.73 99.99 L 141.54 100.50 L 141.39 100.97 L 141.26 101.41 L 141.17 101.83 L 141.11 102.22 L 141.07 102.55 L 141.06 102.84 L 141.06 103.08 L 141.07 103.24 L 141.08 103.34 L 141.08 103.34 L 141.08 103.34 L 141.08 103.34"/>
    <path id="sk_0_3" style="fill:none;stroke:black;stroke-width:0.05" d="M 141.08 103.34"/>
    <path id="sk_0_4" style="fill:none;stroke:black;stroke-width:0.052916" d="M 141.17 103.16"/>
    <path id="sk_1_0" style="fill:none;stroke:black;stroke-width:0.13" d="M 148.05 107.85"/>
    <path id="sk_1_1" style="fill:none;stroke:black;stroke-width:0.11" d="M 148.07 107.96 L 148.11 108.10 L 148.15 108.21 L 148.15 108.21 L 148.23 108.34 L 148.23 108.34 L 148.23 108.34 L 148.35 108.40 L 148.35 108.40 L 148.44 108.34 L 148.44 108.34 L 148.53 108.24 L 148.53 108.24 L 148.63 108.11 L 148.63 108.11 L 148.75 108.02 L 148.75 108.02 L 148.85 107.95 L 148.85 107.95 L 148.94 107.90 L 148.94 107.90 L 149.06 107.87 L 149.06 107.87 L 149.18 107.82 L 149.18 107.82 L 149.32 107.70 L 149.39 107.60 L 149.44 107.48 L 149.49 107.31 L 149.51 107.13 L 149.52 106.92 L 149.50 106.68 L 149.47 106.42 L 149.42 106.14 L 149.38 105.85 L 149.34 105.54 L 149.29 105.22 L 149.26 104.88 L 149.23 104.51 L 149.20 104.13 L 149.17 103.73 L 149.14 103.32 L 149.13 102.90 L 149.14 102.49 L 149.18 102.09 L 149.23 101.71 L 149.28 101.35 L 149.34 101.00 L 149.41 100.67 L 149.49 100.34 L 149.58 100.04 L 149.66 99.75 L 149.75 99.48 L 149.84 99.23 L 149.93 98.97 L 150.03 98.72 L 150.13 98.50 L 150.23 98.28 L 150.34 98.09 L 150.45 97.93 L 150.57 97.77 L 150.69 97.64 L 150.82 97.53 L 150.96 97.43 L 151.10 97.33 L 151.25 97.25 L 151.40 97.17 L 151.56 97.10 L 151.70 97.05 L 151.83 97.01 L 151.95 96.98 L 152.05 96.96 L 152.14 96.96 L 152.24 96.98 L 152.34 97.01 L 152.45 97.06 L 152.56 97.12 L 152.67 97.18 L 152.79 97.25 L 152.91 97.34 L 153.04 97.44 L 153.17 97.55 L 153.31 97.68 L 153.44 97.82 L 153.58 97.98 L 153.69 98.15 L 153.80 98.33 L 153.89 98.52 L 153.97 98.71 L 154.05 98.91 L 154.13 99.13 L 154.21 99.36 L 154.29 99.60 L 154.37 99.84 L 154.45 100.09 L 154.53 100.33 L 154.62 100.57 L 154.69 100.80 L 154.76 101.02 L 154.81 101.23 L 154.85 101.43 L 154.88 101.62 L 154.91 101.80 L 154.93 101.96 L 154.95 102.13 L 154.96 102.30 L 154.96 102.48 L 154.95 102.67 L 154.95 102.87 L 154.96 103.09 L 154.98 103.34 L 155.01 103.61 L 155.03 103.91 L 155.05 104.26 L 155.05 104.65 L 155.06 105.09 L 155.06 105.54 L 155.06 105.96 L 155.05 106.32 L 155.03 106.63 L 154.99 106.89 L 154.95 107.13 L 154.90 107.35 L 154.84 107.54 L 154.78 107.72 L 154.71 107.87 L 154.64 108.01 L 154.55 108.14 L 154.43 108.27 L 154.29 108.42 L 154.11 108.60 L 153.89 108.78 L 153.65 108.97 L 153.39 109.15 L 153.13 109.30 L 152.87 109.45 L 152.59 109.58 L 152.31 109.69 L 152.04 109.79 L 151.76 109.85 L 151.49 109.89 L 151.20 109.91 L 150.91 109.89 L 150.63 109.85 L 150.35 109.78 L 150.10 109.69 L 149.89 109.59 L 149.73 109.50 L 149.60 109.40 L 149.60 109.40 L 149.46 109.26 L 149.46 109.26 L 149.40 109.14 L 149.40 109.14 L 149.41 109.04 L 149.41 109.04 L 149.48 108.94"/>
    <path id="sk_1_2" style="fill:none;stroke:black;stroke-width:0.08" d="M 149.48 108.94"/>
    <path id="sk_1_3" style="fill:none;stroke:black;stroke-width:0.05" d="M 149.60 108.79"/>
    <path id="sk_1_4" style="fill:none;stroke:black;stroke-width:0.052916" d="M 149.66 108.67"/>
    <path id="sk_2_0" style="fill:none;stroke:black;stroke-width:0.08" d="M 146.80 105.77 L 146.80 105.77"/>
    <path id="sk_2_1" style="fill:none;stroke:black;stroke-width:0.11" d="M 146.91 105.94 L 146.91 105.94 L 147.03 106.06 L 147.03 106.06 L 147.03 106.06 L 147.03 106.06 L 147.03 106.06 L 147.03 106.06"/>
    <path id="sk_2_2" style="fill:none;stroke:black;stroke-width:0.13" d="M 147.03 106.06 L 147.04 106.16"/>
    <path id="sk_2_3" style="fill:none;stroke:black;stroke-width:0.11" d="M 147.04 106.16 L 146.94 106.20 L 146.94 106.20 L 146.77 106.24 L 146.66 106.25 L 146.54 106.27 L 146.40 106.26 L 146.22 106.25 L 146.00 106.22 L 145.76 106.17 L 145.50 106.08 L 145.26 105.97 L 145.04 105.82 L 144.85 105.65 L 144.68 105.46 L 144.53 105.24 L 144.43 105.00 L 144.39 104.76 L 144.39 104.52 L 144.45 104.31 L 144.55 104.12 L 144.69 103.97 L 144.89 103.85 L 145.14 103.76 L 145.42 103.68 L 145.73 103.64 L 146.04 103.63 L 146.36 103.65 L 146.66 103.71 L 146.92 103.80 L 147.15 103.92 L 147.34 104.07 L 147.52 104.24 L 147.66 104.44 L 147.78 104.66 L 147.88 104.90 L 147.96 105.13 L 148.02 105.35 L 148.07 105.53 L 148.09 105.69 L 148.10 105.81 L 148.09 105.92"/>
    <path id="sk_2_4" style="fill:none;stroke:black;stroke-width:0.05" d="M 148.09 105.92"/>
    <path id="sk_2_5" style="fill:none;stroke:black;stroke-width:0.052916" d="M 147.94 106.04"/>
    <path id="sk_3_0" style="fill:none;stroke:black;stroke-width:0.11" d="M 147.09 100.84"/>
    <path id="sk_3_1" style="fill:none;stroke:black;stroke-width:0.13" d="M 147.17 100.99 L 147.23 101.09"/>
    <path id="sk_3_2" style="fill:none;stroke:black;stroke-width:0.11" d="M 147.30 101.20 L 147.38 101.30 L 147.45 101.40 L 147.50 101.50 L 147.54 101.60 L 147.54 101.60 L 147.54 101.76 L 147.54 101.76 L 147.43 101.88 L 147.30 101.92 L 147.10 101.93 L 146.86 101.91 L 146.58 101.87 L 146.32 101.80 L 146.08 101.71 L 145.90 101.61 L 145.76 101.48 L 145.64 101.33 L 145.55 101.17 L 145.48 100.99 L 145.44 100.79 L 145.46 100.59 L 145.52 100.38 L 145.63 100.18 L 145.77 99.99 L 145.96 99.82 L 146.18 99.68 L 146.44 99.58 L 146.72 99.50 L 147.01 99.47 L 147.30 99.48 L 147.56 99.52 L 147.78 99.61 L 147.97 99.74 L 148.12 99.90 L 148.23 100.09 L 148.30 100.28 L 148.33 100.48 L 148.32 100.68 L 148.29 100.87 L 148.24 101.05 L 148.18 101.23 L 148.13 101.38 L 148.06 101.51"/>
    <path id="sk_3_3" style="fill:none;stroke:black;stroke-width:0.05" d="M 147.98 101.62"/>
    <path id="sk_3_4" style="fill:none;stroke:black;stroke-width:0.052916" d="M 147.89 101.69"/>
  </g>
</svg>
