<?xml version="1.0" encoding="UTF-8"?>
<svg xmlns="http://www.w3.org/2000/svg" width="210mm" height="148mm" viewBox="0 0 210 148">
  <g id="layer0">
    <path id="sk_0_0" style="fill:none;stroke:black;stroke-width:1.53" d="M 415.28 0.00 L 415.28 0.00 L 414.34 389.32 L 413.40 389.32 L 415.28 389.32 L 415.28 389.32 L 414.34 2.76 L 413.40 2.76 L 411.72 537.80"/>
    <path id="sk_0_1" style="fill:none;stroke:black;stroke-width:0.21" d="M 410.04 648.23 L 408.36 648.23"/>
    <path id="sk_0_2" style="fill:none;stroke:black;stroke-width:3.76" d="M 33.83 648.44"/>
    <path id="sk_0_3" style="fill:none;stroke:black;stroke-width:4.29" d="M 34.38 649.45 L 34.93 650.46"/>
    <path id="sk_0_4" style="fill:none;stroke:black;stroke-width:6.80" d="M 35.48 353.83 L 36.03 353.83 L 36.58 353.90 L 37.13 353.97 L 38.15 422.62 L 39.17 422.62 L 40.75 423.46 L 397.36 424.30"/>
    <path id="sk_0_5" style="fill:none;stroke:black;stroke-width:6.799706" d="M 397.36 425.14"/>
    <path id="sk_1_0" style="fill:none;stroke:black;stroke-width:6.77" d="M 397.36 425.14 L 287.29 425.14 L 287.29 425.14"/>
    <path id="sk_1_1" style="fill:none;stroke:black;stroke-width:6.80" d="M 287.86 425.14 L 288.43 425.14 L 289.00 425.14"/>
    <path id="sk_1_2" style="fill:none;stroke:black;stroke-width:6.83" d="M 289.57 264.26 L 290.14 264.26 L 290.71 264.26 L 291.28 264.26 L 63.50 20.47 L 63.49 20.47 L 63.48 20.47 L 63.47 20.47 L 63.46 20.47 L 63.45 20.47 L 63.44 20.47 L 63.43 510.06 L 63.42 510.06 L 159.34 510.06 L 159.34 510.06 L 159.34 510.06 L 159.34 510.06 L 159.34 510.06 L 159.34 510.06 L 159.34 510.06"/>
    <path id="sk_1_3" style="fill:none;stroke:black;stroke-width:6.85" d="M 159.34 510.06 L 159.34 510.06 L 159.34 510.06 L 159.34 510.06 L 159.97 49.11 L 160.78 48.19 L 161.59 47.27 L 162.40 453.74 L 163.21 652.87"/>
    <path id="sk_1_4" style="fill:none;stroke:black;stroke-width:6.852621999999999" d="M 164.02 652.87"/>
  </g>
</svg>
