<?xml version="1.0" encoding="UTF-8"?>
<svg xmlns="http://www.w3.org/2000/svg" width="210mm" height="148mm" viewBox="0 0 210 148">
  <g id="layer0">
    <path id="sk_0_0" style="fill:none;stroke:black;stroke-width:0.19" d="M 0.00 0.00 L 0.00 0.00"/>
    <path id="sk_0_1" style="fill:none;stroke:black;stroke-width:0.21" d="M -0.11 -0.01"/>
    <path id="sk_0_2" style="fill:none;stroke:black;stroke-width:0.24" d="M -0.11 -0.01 L -0.23 -0.02 L -0.37 -0.04 L -0.61 -0.08 L -0.98 -0.18 L -1.53 -0.34 L -2.28 -0.56 L -3.24 -0.86 L -4.30 -1.19 L -5.35 -1.56 L -6.30 -1.90"/>
    <path id="sk_0_3" style="fill:none;stroke:black;stroke-width:0.21" d="M -7.04 -2.23 L -7.58 -2.53 L -7.95 -2.79 L -8.16 -3.03"/>
    <path id="sk_0_4" style="fill:none;stroke:black;stroke-width:0.19" d="M -8.27 -3.24 L -8.28 -3.44 L -8.17 -3.66 L -7.92 -3.91 L -7.50 -4.20 L -6.93 -4.50 L -6.24 -4.80 L -5.49 -5.07 L -4.73 -5.31 L -3.98 -5.51 L -3.27 -5.68 L -2.64 -5.82 L -2.07 -5.93 L -1.58 -6.01"/>
    <path id="sk_0_5" style="fill:none;stroke:black;stroke-width:0.16" d="M -1.16 -6.08"/>
    <path id="sk_0_6" style="fill:none;stroke:black;stroke-width:0.13" d="M -0.80 -6.11"/>
    <path id="sk_0_7" style="fill:none;stroke:black;stroke-width:0.08" d="M -0.52 -6.12"/>
    <path id="sk_0_8" style="fill:none;stroke:black;stroke-width:0.07937399999999999" d="M -0.33 -6.09"/>
    <path id="sk_1_0" style="fill:none;stroke:black;stroke-width:0.42" d="M -0.33 -6.09 L -0.33 -6.09"/>
    <path id="sk_1_1" style="fill:none;stroke:black;stroke-width:0.21" d="M -0.33 593.96"/>
    <path id="sk_1_2" style="fill:none;stroke:black;stroke-width:0.24" d="M -0.33 593.97"/>
    <path id="sk_1_3" style="fill:none;stroke:black;stroke-width:0.21" d="M -0.32 593.94 L -0.29 593.81 L -0.26 593.68 L -0.34 593.57 L -0.36 593.35"/>
    <path id="sk_1_4" style="fill:none;stroke:black;stroke-width:0.19" d="M -0.41 593.04 L -0.51 592.61"/>
    <path id="sk_1_5" style="fill:none;stroke:black;stroke-width:0.16" d="M -0.67 592.05"/>
    <path id="sk_1_6" style="fill:none;stroke:black;stroke-width:0.13" d="M -0.87 591.40"/>
    <path id="sk_1_7" style="fill:none;stroke:black;stroke-width:0.08" d="M -1.09 590.68"/>
    <path id="sk_1_8" style="fill:none;stroke:black;stroke-width:0.05" d="M -1.32 589.93"/>
    <path id="sk_1_9" style="fill:none;stroke:black;stroke-width:0.052916" d="M -1.57 589.17"/>
    <path id="sk_2_0" style="fill:none;stroke:black;stroke-width:0.19" d="M -1.57 589.17 L -1.57 589.17 L -1.57 589.17"/>
    <path id="sk_2_1" style="fill:none;stroke:black;stroke-width:0.21" d="M -1.41 589.46"/>
    <path id="sk_2_2" style="fill:none;stroke:black;stroke-width:0.24" d="M -1.17 589.84 L -0.88 590.22"/>
    <path id="sk_2_3" style="fill:none;stroke:black;stroke-width:0.21" d="M -0.57 590.55 L -0.27 590.84 L 0.03 591.06 L 0.29 591.20 L 0.56 591.25 L 0.84 591.21 L 1.15 591.10 L 1.49 590.94 L 1.87 590.74 L 2.25 590.50 L 2.65 590.26"/>
    <path id="sk_2_4" style="fill:none;stroke:black;stroke-width:0.19" d="M 3.02 590.03 L 3.37 589.83 L 3.69 589.68"/>
    <path id="sk_2_5" style="fill:none;stroke:black;stroke-width:0.16" d="M 3.98 589.62 L 4.24 589.65"/>
    <path id="sk_2_6" style="fill:none;stroke:black;stroke-width:0.13" d="M 4.49 589.78 L 4.70 590.01"/>
    <path id="sk_2_7" style="fill:none;stroke:black;stroke-width:0.11" d="M 4.87 590.31 L 4.99 590.64"/>
    <path id="sk_2_8" style="fill:none;stroke:black;stroke-width:0.08" d="M 5.05 590.99 L 5.06 591.35"/>
    <path id="sk_2_9" style="fill:none;stroke:black;stroke-width:0.05" d="M 5.01 591.67 L 4.87 591.95"/>
    <path id="sk_2_10" style="fill:none;stroke:black;stroke-width:0.052916" d="M 4.63 592.17"/>
    <path id="sk_3_0" style="fill:none;stroke:black;stroke-width:0.08" d="M 4.63 592.17 L 4.63 592.17 L 4.63 592.18"/>
    <path id="sk_3_1" style="fill:none;stroke:black;stroke-width:0.11" d="M 4.63 592.19"/>
    <path id="sk_3_2" style="fill:none;stroke:black;stroke-width:0.13" d="M 4.78 592.28"/>
    <path id="sk_3_3" style="fill:none;stroke:black;stroke-width:0.16" d="M 4.91 592.39"/>
    <path id="sk_3_4" style="fill:none;stroke:black;stroke-width:0.19" d="M 5.10 592.54 L 5.33 592.70"/>
    <path id="sk_3_5" style="fill:none;stroke:black;stroke-width:0.21" d="M 5.63 592.87 L 5.95 593.04 L 6.29 593.18"/>
    <path id="sk_3_6" style="fill:none;stroke:black;stroke-width:0.19" d="M 6.62 593.29 L 6.93 593.35 L 7.20 593.35 L 7.44 593.26"/>
    <path id="sk_3_7" style="fill:none;stroke:black;stroke-width:0.16" d="M 7.69 593.11 L 7.93 592.90 L 8.18 592.65 L 8.43 592.37 L 8.68 592.10 L 8.93 591.84"/>
    <path id="sk_3_8" style="fill:none;stroke:black;stroke-width:0.13" d="M 9.20 591.64 L 9.48 591.49 L 9.78 591.42 L 10.09 591.43 L 10.42 591.52 L 10.76 591.68 L 11.09 591.92 L 11.39 592.19 L 11.64 592.48 L 11.84 592.78 L 11.99 593.08 L 12.10 593.37 L 12.14 593.66"/>
    <path id="sk_3_9" style="fill:none;stroke:black;stroke-width:0.11" d="M 12.12 593.93 L 12.04 594.18"/>
    <path id="sk_3_10" style="fill:none;stroke:black;stroke-width:0.05" d="M 11.88 594.40"/>
    <path id="sk_3_11" style="fill:none;stroke:black;stroke-width:0.052916" d="M 11.65 594.57"/>
    <path id="sk_4_0" style="fill:none;stroke:black;stroke-width:0.16" d="M 11.65 594.57 L 11.65 594.57"/>
    <path id="sk_4_1" style="fill:none;stroke:black;stroke-width:0.19" d="M 11.58 594.70 L 11.58 594.70 L 11.39 594.78 L 11.21 594.78 L 10.97 594.74 L 10.65 594.66 L 10.23 594.51 L 9.76 594.30 L 9.29 594.05 L 8.89 593.78 L 8.61 593.54 L 8.47 593.34"/>
    <path id="sk_4_2" style="fill:none;stroke:black;stroke-width:0.21" d="M 8.41 593.19 L 8.42 593.07 L 8.47 592.98 L 8.47 592.98 L 8.62 592.84 L 8.71 592.78"/>
    <path id="sk_4_3" style="fill:none;stroke:black;stroke-width:0.19" d="M 8.81 592.74 L 8.81 592.74 L 8.94 592.67 L 8.94 592.67 L 8.94 592.67 L 8.86 592.55 L 8.73 592.46 L 8.54 592.32 L 8.26 592.13 L 7.97 591.91 L 7.72 591.70 L 7.55 591.53 L 7.49 591.40 L 7.52 591.30 L 7.62 591.21 L 7.78 591.10 L 8.00 590.99 L 8.28 590.87 L 8.60 590.74 L 8.96 590.61 L 9.32 590.45 L 9.66 590.25"/>
    <path id="sk_4_4" style="fill:none;stroke:black;stroke-width:0.16" d="M 9.94 589.99"/>
    <path id="sk_4_5" style="fill:none;stroke:black;stroke-width:0.13" d="M 10.15 589.69"/>
    <path id="sk_4_6" style="fill:none;stroke:black;stroke-width:0.11" d="M 10.30 589.34"/>
    <path id="sk_4_7" style="fill:none;stroke:black;stroke-width:0.05" d="M 10.36 588.95"/>
    <path id="sk_4_8" style="fill:none;stroke:black;stroke-width:0.052916" d="M 10.33 588.52"/>
    <path id="sk_5_0" style="fill:none;stroke:black;stroke-width:0.19" d="M 10.33 588.52 L 10.33 588.52 L 11.38 588.52"/>
    <path id="sk_5_1" style="fill:none;stroke:black;stroke-width:0.21" d="M 11.38 588.52"/>
    <path id="sk_5_2" style="fill:none;stroke:black;stroke-width:0.24" d="M 11.35 588.65 L 11.35 588.65"/>
    <path id="sk_5_3" style="fill:none;stroke:black;stroke-width:0.21" d="M 11.21 588.72 L 11.09 588.72 L 10.95 588.72 L 10.71 588.68 L 10.37 588.59 L 9.95 588.43 L 9.45 588.22 L 8.96 587.96 L 8.49 587.67 L 8.07 587.37 L 7.73 587.06 L 7.50 586.77 L 7.40 586.49 L 7.43 586.24 L 7.57 585.99 L 7.81 585.73"/>
    <path id="sk_5_4" style="fill:none;stroke:black;stroke-width:0.19" d="M 8.15 585.49 L 8.56 585.25 L 9.00 585.07"/>
    <path id="sk_5_5" style="fill:none;stroke:black;stroke-width:0.16" d="M 9.44 584.93"/>
    <path id="sk_5_6" style="fill:none;stroke:black;stroke-width:0.13" d="M 9.86 584.88"/>
    <path id="sk_5_7" style="fill:none;stroke:black;stroke-width:0.11" d="M 10.26 584.92"/>
    <path id="sk_5_8" style="fill:none;stroke:black;stroke-width:0.05" d="M 10.63 585.04"/>
    <path id="sk_5_9" style="fill:none;stroke:black;stroke-width:0.052916" d="M 10.94 585.23"/>
    <path id="sk_6_0" style="fill:none;stroke:black;stroke-width:3.65" d="M 10.94 585.23 L 10.94 585.23"/>
    <path id="sk_6_1" style="fill:none;stroke:black;stroke-width:0.19" d="M 10.94 59.20 L 10.94 59.20"/>
    <path id="sk_6_2" style="fill:none;stroke:black;stroke-width:0.21" d="M 10.94 59.20"/>
    <path id="sk_6_3" style="fill:none;stroke:black;stroke-width:0.19" d="M 10.94 59.20 L 10.94 59.20 L 10.94 59.20 L 10.94 59.20 L 10.90 59.01 L 10.88 58.84 L 10.85 58.63 L 10.79 58.37"/>
    <path id="sk_6_4" style="fill:none;stroke:black;stroke-width:0.16" d="M 10.74 58.08"/>
    <path id="sk_6_5" style="fill:none;stroke:black;stroke-width:0.13" d="M 10.72 57.81"/>
    <path id="sk_6_6" style="fill:none;stroke:black;stroke-width:0.08" d="M 10.72 57.53"/>
    <path id="sk_6_7" style="fill:none;stroke:black;stroke-width:0.05" d="M 10.80 57.29"/>
    <path id="sk_6_8" style="fill:none;stroke:black;stroke-width:0.052916" d="M 10.87 57.03"/>
    <path id="sk_7_0" style="fill:none;stroke:black;stroke-width:0.16" d="M 10.87 57.03 L 10.87 57.03 L 10.87 417.54"/>
    <path id="sk_7_1" style="fill:none;stroke:black;stroke-width:0.19" d="M 11.03 417.54"/>
    <path id="sk_7_2" style="fill:none;stroke:black;stroke-width:0.21" d="M 11.30 417.54 L 11.66 417.56"/>
    <path id="sk_7_3" style="fill:none;stroke:black;stroke-width:0.19" d="M 12.09 417.59 L 12.57 417.61 L 13.07 417.67 L 13.52 417.72 L 13.95 417.76 L 14.34 417.81 L 14.68 417.85 L 14.99 417.90 L 15.23 417.95 L 15.39 418.00"/>
    <path id="sk_7_4" style="fill:none;stroke:black;stroke-width:0.16" d="M 15.39 418.00"/>
    <path id="sk_7_5" style="fill:none;stroke:black;stroke-width:0.13" d="M 15.39 418.00"/>
    <path id="sk_7_6" style="fill:none;stroke:black;stroke-width:0.11" d="M 15.39 418.00 L 15.22 417.98"/>
    <path id="sk_7_7" style="fill:none;stroke:black;stroke-width:0.13" d="M 14.99 417.92 L 14.69 417.83 L 14.35 417.73 L 14.01 417.61 L 13.70 417.50 L 13.43 417.41"/>
    <path id="sk_7_8" style="fill:none;stroke:black;stroke-width:0.16" d="M 13.20 417.32 L 13.00 417.23"/>
    <path id="sk_7_9" style="fill:none;stroke:black;stroke-width:0.19" d="M 12.83 417.13 L 12.67 417.02 L 12.53 416.89"/>
    <path id="sk_7_10" style="fill:none;stroke:black;stroke-width:0.21" d="M 12.40 416.73 L 12.30 416.56 L 12.22 416.37"/>
    <path id="sk_7_11" style="fill:none;stroke:black;stroke-width:0.24" d="M 12.15 416.17 L 12.10 416.00 L 12.04 415.81 L 11.98 415.62 L 11.91 415.45"/>
    <path id="sk_7_12" style="fill:none;stroke:black;stroke-width:0.21" d="M 11.79 414.40 L 11.66 413.35 L 11.52 412.31 L 11.34 411.28 L 11.16 410.24 L 10.94 409.21"/>
    <path id="sk_7_13" style="fill:none;stroke:black;stroke-width:0.19" d="M 10.67 408.16"/>
    <path id="sk_7_14" style="fill:none;stroke:black;stroke-width:0.16" d="M 10.33 407.12"/>
    <path id="sk_7_15" style="fill:none;stroke:black;stroke-width:0.11" d="M 9.91 406.08"/>
    <path id="sk_7_16" style="fill:none;stroke:black;stroke-width:0.05" d="M 9.36 405.04"/>
    <path id="sk_7_17" style="fill:none;stroke:black;stroke-width:0.052916" d="M 8.71 404.01"/>
    <path id="sk_8_0" style="fill:none;stroke:black;stroke-width:0.11" d="M 8.71 404.01 L 8.71 404.01 L 9.10 404.01 L 484.22 593.93"/>
    <path id="sk_8_1" style="fill:none;stroke:black;stroke-width:0.13" d="M 484.27 593.94"/>
    <path id="sk_8_2" style="fill:none;stroke:black;stroke-width:0.16" d="M 484.43 593.96"/>
    <path id="sk_8_3" style="fill:none;stroke:black;stroke-width:0.19" d="M 484.72 593.98 L 485.12 594.01"/>
    <path id="sk_8_4" style="fill:none;stroke:black;stroke-width:0.21" d="M 485.65 594.05"/>
    <path id="sk_8_5" style="fill:none;stroke:black;stroke-width:0.19" d="M 486.28 594.08 L 487.01 594.10 L 487.82 594.12 L 488.63 594.15 L 489.39 594.18 L 490.04 594.23 L 490.55 594.28 L 490.93 594.31 L 491.17 594.33"/>
    <path id="sk_8_6" style="fill:none;stroke:black;stroke-width:0.16" d="M 491.31 594.32"/>
    <path id="sk_8_7" style="fill:none;stroke:black;stroke-width:0.13" d="M 491.36 594.31"/>
    <path id="sk_8_8" style="fill:none;stroke:black;stroke-width:0.08" d="M 491.19 594.34"/>
    <path id="sk_8_9" style="fill:none;stroke:black;stroke-width:0.07937399999999999" d="M 491.02 594.37"/>
    <path id="sk_9_0" style="fill:none;stroke:black;stroke-width:1.08" d="M 491.02 594.37 L 491.02 594.37"/>
    <path id="sk_9_1" style="fill:none;stroke:black;stroke-width:1.11" d="M 491.41 594.37 L 491.80 594.37"/>
    <path id="sk_9_2" style="fill:none;stroke:black;stroke-width:1.08" d="M 492.19 594.37 L 492.53 594.26 L 492.88 594.14 L 493.22 593.93 L 493.55 593.62 L 493.86 593.21 L 494.17 592.69 L 494.47 592.07"/>
    <path id="sk_9_3" style="fill:none;stroke:black;stroke-width:0.19" d="M 494.79 591.39 L 495.12 590.67"/>
    <path id="sk_9_4" style="fill:none;stroke:black;stroke-width:0.16" d="M 495.48 589.98"/>
    <path id="sk_9_5" style="fill:none;stroke:black;stroke-width:0.11" d="M 495.90 589.30"/>
    <path id="sk_9_6" style="fill:none;stroke:black;stroke-width:0.05" d="M 496.36 588.67"/>
    <path id="sk_9_7" style="fill:none;stroke:black;stroke-width:0.052916" d="M 496.88 588.14"/>
    <path id="sk_10_0" style="fill:none;stroke:black;stroke-width:0.19" d="M 496.88 588.14 L 496.88 588.14 L 99.88 587.96"/>
    <path id="sk_10_1" style="fill:none;stroke:black;stroke-width:0.21" d="M 99.93 587.90"/>
    <path id="sk_10_2" style="fill:none;stroke:black;stroke-width:0.24" d="M 99.96 587.84"/>
    <path id="sk_10_3" style="fill:none;stroke:black;stroke-width:0.21" d="M 99.96 587.66 L 99.85 587.43 L 99.71 587.13 L 99.51 586.72 L 99.22 586.20 L 98.82 585.53 L 98.39 584.74 L 97.90 583.84"/>
    <path id="sk_10_4" style="fill:none;stroke:black;stroke-width:0.19" d="M 97.41 582.85 L 96.90 581.81"/>
    <path id="sk_10_5" style="fill:none;stroke:black;stroke-width:0.13" d="M 96.40 580.74"/>
    <path id="sk_10_6" style="fill:none;stroke:black;stroke-width:0.08" d="M 95.94 579.67"/>
    <path id="sk_10_7" style="fill:none;stroke:black;stroke-width:0.07937399999999999" d="M 95.50 578.62"/>
    <path id="sk_11_0" style="fill:none;stroke:black;stroke-width:0.11" d="M 95.50 578.62 L 111.35 84.52 L 111.40 84.69"/>
    <path id="sk_11_1" style="fill:none;stroke:black;stroke-width:0.13" d="M 111.39 84.81"/>
    <path id="sk_11_2" style="fill:none;stroke:black;stroke-width:0.16" d="M 111.34 84.95"/>
    <path id="sk_11_3" style="fill:none;stroke:black;stroke-width:0.19" d="M 111.26 85.07"/>
    <path id="sk_11_4" style="fill:none;stroke:black;stroke-width:0.21" d="M 111.15 85.19"/>
    <path id="sk_11_5" style="fill:none;stroke:black;stroke-width:0.19" d="M 110.99 85.28 L 110.79 85.35 L 110.48 85.39 L 110.04 85.39 L 109.40 85.37 L 108.53 85.31 L 107.40 85.20 L 106.08 85.04 L 104.70 84.79 L 103.44 84.48 L 102.48 84.14 L 101.83 83.79 L 101.47 83.45 L 101.33 83.12 L 101.35 82.77 L 101.55 82.38 L 101.96 81.97 L 102.62 81.53"/>
    <path id="sk_11_6" style="fill:none;stroke:black;stroke-width:0.13" d="M 103.46 81.10 L 104.41 80.74 L 105.42 80.44"/>
    <path id="sk_11_7" style="fill:none;stroke:black;stroke-width:0.11" d="M 106.41 80.25"/>
    <path id="sk_11_8" style="fill:none;stroke:black;stroke-width:0.08" d="M 107.35 80.15"/>
    <path id="sk_11_9" style="fill:none;stroke:black;stroke-width:0.05" d="M 108.22 80.15"/>
    <path id="sk_11_10" style="fill:none;stroke:black;stroke-width:0.052916" d="M 108.99 80.23"/>
    <path id="sk_12_0" style="fill:none;stroke:black;stroke-width:0.16" d="M 108.99 80.23"/>
    <path id="sk_12_1" style="fill:none;stroke:black;stroke-width:0.19" d="M 106.80 83.43"/>
    <path id="sk_12_2" style="fill:none;stroke:black;stroke-width:0.21" d="M 106.70 83.41 L 106.59 83.36"/>
    <path id="sk_12_3" style="fill:none;stroke:black;stroke-width:0.19" d="M 106.59 83.36 L 106.47 83.17 L 106.43 83.01 L 106.39 82.80 L 106.36 82.55"/>
    <path id="sk_12_4" style="fill:none;stroke:black;stroke-width:0.16" d="M 106.33 82.26 L 106.30 81.92 L 106.28 81.55"/>
    <path id="sk_12_5" style="fill:none;stroke:black;stroke-width:0.11" d="M 106.29 81.15"/>
    <path id="sk_12_6" style="fill:none;stroke:black;stroke-width:0.05" d="M 106.34 80.74"/>
    <path id="sk_12_7" style="fill:none;stroke:black;stroke-width:0.052916" d="M 106.42 80.30"/>
    <path id="sk_13_0" style="fill:none;stroke:black;stroke-width:0.16" d="M 106.42 80.30"/>
    <path id="sk_13_1" style="fill:none;stroke:black;stroke-width:0.19" d="M 105.56 78.50"/>
    <path id="sk_13_2" style="fill:none;stroke:black;stroke-width:0.21" d="M 105.25 78.50"/>
    <path id="sk_13_3" style="fill:none;stroke:black;stroke-width:0.19" d="M 104.88 78.45 L 104.61 78.34 L 104.43 78.19 L 104.36 78.02 L 104.39 77.84 L 104.51 77.67 L 104.70 77.48 L 104.97 77.29 L 105.30 77.09 L 105.66 76.89 L 106.01 76.71 L 106.32 76.55 L 106.55 76.39 L 106.71 76.23"/>
    <path id="sk_13_4" style="fill:none;stroke:black;stroke-width:0.16" d="M 106.79 76.07 L 106.78 75.88 L 106.68 75.68 L 106.45 75.45 L 106.12 75.21 L 105.69 74.93"/>
    <path id="sk_13_5" style="fill:none;stroke:black;stroke-width:0.19" d="M 105.22 74.64 L 104.76 74.36 L 104.34 74.10"/>
    <path id="sk_13_6" style="fill:none;stroke:black;stroke-width:0.21" d="M 103.98 73.85 L 103.69 73.65 L 103.49 73.49 L 103.39 73.36 L 103.39 73.36"/>
    <path id="sk_13_7" style="fill:none;stroke:black;stroke-width:0.19" d="M 103.51 73.21 L 103.70 73.13 L 103.95 73.07 L 104.24 72.99 L 104.57 72.91 L 104.90 72.86 L 105.24 72.81 L 105.57 72.79 L 105.84 72.77 L 106.07 72.76 L 106.24 72.75 L 106.35 72.73 L 106.35 72.73"/>
    <path id="sk_13_8" style="fill:none;stroke:black;stroke-width:0.16" d="M 106.35 72.73"/>
    <path id="sk_13_9" style="fill:none;stroke:black;stroke-width:0.13" d="M 106.41 72.61"/>
    <path id="sk_13_10" style="fill:none;stroke:black;stroke-width:0.11" d="M 106.41 72.61"/>
    <path id="sk_13_11" style="fill:none;stroke:black;stroke-width:0.05" d="M 106.31 72.50"/>
    <path id="sk_13_12" style="fill:none;stroke:black;stroke-width:0.052916" d="M 106.23 72.40"/>
    <path id="sk_14_0" style="fill:none;stroke:black;stroke-width:0.03" d="M 106.23 72.40 L 106.23 72.40 L 105.93 72.63 L 430.08 72.86 L 430.17 73.00 L 430.27 73.24 L 430.45 73.43 L 430.70 73.65"/>
    <path id="sk_14_1" style="fill:none;stroke:black;stroke-width:0.08" d="M 431.01 73.88 L 431.39 74.15 L 431.83 74.43 L 432.32 74.73 L 432.86 75.06 L 433.42 75.39 L 433.98 75.73 L 434.54 76.05 L 435.08 76.37 L 435.63 75.81 L 436.15 75.24 L 436.65 74.65 L 437.12 74.08"/>
    <path id="sk_14_2" style="fill:none;stroke:black;stroke-width:0.13" d="M 437.57 73.53"/>
    <path id="sk_14_3" style="fill:none;stroke:black;stroke-width:0.16" d="M 437.96 72.98"/>
    <path id="sk_14_4" style="fill:none;stroke:black;stroke-width:0.19" d="M 438.29 72.44"/>
    <path id="sk_14_5" style="fill:none;stroke:black;stroke-width:0.21" d="M 438.56 71.88"/>
    <path id="sk_14_6" style="fill:none;stroke:black;stroke-width:0.24" d="M 438.77 71.28"/>
    <path id="sk_14_7" style="fill:none;stroke:black;stroke-width:0.21" d="M 438.91 70.58 L 439.08 69.97 L 439.22 69.27 L 439.25 68.59 L 439.27 67.88 L 439.18 67.13 L 438.96 66.33 L 438.61 65.49 L 438.10 64.59 L 437.49 63.63 L 436.80 62.62 L 436.08 61.56 L 435.43 60.50 L 434.90 59.44 L 434.53 58.40 L 434.32 57.39 L 434.26 56.38 L 434.35 55.41 L 434.59 54.44 L 435.00 53.47 L 435.58 52.49 L 436.34 51.48 L 437.24 50.48 L 438.21 49.52 L 439.20 48.61 L 440.19 47.75 L 441.11 46.97 L 441.96 46.25 L 442.73 45.60 L 443.37 44.99"/>
    <path id="sk_14_8" style="fill:none;stroke:black;stroke-width:0.19" d="M 443.90 44.41 L 444.33 43.87"/>
    <path id="sk_14_9" style="fill:none;stroke:black;stroke-width:0.16" d="M 444.68 43.35"/>
    <path id="sk_14_10" style="fill:none;stroke:black;stroke-width:0.13" d="M 444.95 42.86"/>
    <path id="sk_14_11" style="fill:none;stroke:black;stroke-width:0.11" d="M 445.14 42.40"/>
    <path id="sk_14_12" style="fill:none;stroke:black;stroke-width:0.08" d="M 445.23 41.95 L 445.22 41.51"/>
    <path id="sk_14_13" style="fill:none;stroke:black;stroke-width:0.11" d="M 445.12 41.08 L 444.94 40.67 L 444.70 40.23 L 444.42 39.77 L 444.10 39.28 L 443.78 38.74"/>
    <path id="sk_14_14" style="fill:none;stroke:black;stroke-width:0.13" d="M 443.53 38.19"/>
    <path id="sk_14_15" style="fill:none;stroke:black;stroke-width:0.16" d="M 443.34 37.60"/>
    <path id="sk_14_16" style="fill:none;stroke:black;stroke-width:0.19" d="M 443.23 36.97 L 443.20 36.32"/>
    <path id="sk_14_17" style="fill:none;stroke:black;stroke-width:0.16" d="M 443.22 35.62 L 443.27 34.90 L 443.41 34.20 L 443.41 33.33 L 443.46 32.47"/>
    <path id="sk_14_18" style="fill:none;stroke:black;stroke-width:0.13" d="M 443.48 31.54 L 443.47 30.56 L 443.44 29.52"/>
    <path id="sk_14_19" style="fill:none;stroke:black;stroke-width:0.11" d="M 443.38 28.43"/>
    <path id="sk_14_20" style="fill:none;stroke:black;stroke-width:0.08" d="M 443.29 27.31 L 443.16 26.17"/>
    <path id="sk_14_21" style="fill:none;stroke:black;stroke-width:0.05" d="M 443.01 25.00 L 442.84 23.80 L 442.67 22.59 L 442.48 21.35 L 442.31 20.13"/>
    <path id="sk_14_22" style="fill:none;stroke:black;stroke-width:0.08" d="M 442.15 18.94 L 442.00 17.77 L 441.88 16.67 L 441.77 15.63 L 441.70 14.67 L 441.68 13.79 L 441.73 13.00"/>
    <path id="sk_14_23" style="fill:none;stroke:black;stroke-width:0.11" d="M 441.87 12.30 L 442.01 11.60 L 442.22 11.02"/>
    <path id="sk_14_24" style="fill:none;stroke:black;stroke-width:0.13" d="M 442.49 10.51"/>
    <path id="sk_14_25" style="fill:none;stroke:black;stroke-width:0.16" d="M 442.79 10.05"/>
    <path id="sk_14_26" style="fill:none;stroke:black;stroke-width:0.19" d="M 443.13 9.64"/>
    <path id="sk_14_27" style="fill:none;stroke:black;stroke-width:0.21" d="M 443.50 9.25 L 443.88 8.85 L 444.29 8.40"/>
    <path id="sk_14_28" style="fill:none;stroke:black;stroke-width:0.19" d="M 444.70 7.90 L 445.08 7.32 L 445.46 6.67 L 445.85 5.97 L 446.25 5.18"/>
    <path id="sk_14_29" style="fill:none;stroke:black;stroke-width:0.16" d="M 446.69 4.32 L 447.14 3.41 L 447.60 2.44 L 448.09 1.45 L 448.57 0.46 L 449.03 -0.49 L 449.48 -1.39 L 449.92 -2.20"/>
    <path id="sk_14_30" style="fill:none;stroke:black;stroke-width:0.13" d="M 450.37 -2.93 L 450.83 -3.56 L 451.28 -4.10 L 451.71 -4.57 L 452.08 -4.99 L 452.39 -5.38 L 452.64 -5.77 L 452.83 -6.16 L 452.95 -6.57 L 452.99 -7.02"/>
    <path id="sk_14_31" style="fill:none;stroke:black;stroke-width:0.11" d="M 452.93 -7.53"/>
    <path id="sk_14_32" style="fill:none;stroke:black;stroke-width:0.08" d="M 452.78 -8.13"/>
    <path id="sk_14_33" style="fill:none;stroke:black;stroke-width:0.05" d="M 452.54 -8.82 L 452.23 -9.62"/>
    <path id="sk_14_34" style="fill:none;stroke:black;stroke-width:0.052916" d="M 451.89 -10.53 L 451.57 -11.55"/>
    <path id="sk_15_0" style="fill:none;stroke:black;stroke-width:0.08" d="M 451.57 -11.55 L 451.57 -11.55 L 451.14 -11.36 L 450.71 -11.17 L 450.28 -10.98"/>
    <path id="sk_15_1" style="fill:none;stroke:black;stroke-width:0.11" d="M 449.98 -10.77"/>
    <path id="sk_15_2" style="fill:none;stroke:black;stroke-width:0.13" d="M 449.69 -10.46"/>
    <path id="sk_15_3" style="fill:none;stroke:black;stroke-width:0.16" d="M 449.45 -10.12"/>
    <path id="sk_15_4" style="fill:none;stroke:black;stroke-width:0.19" d="M 449.25 -9.72"/>
    <path id="sk_15_5" style="fill:none;stroke:black;stroke-width:0.21" d="M 449.09 -9.32 L 449.00 -8.92"/>
    <path id="sk_15_6" style="fill:none;stroke:black;stroke-width:0.19" d="M 448.95 -8.52 L 448.92 -8.17 L 448.88 -7.85 L 448.84 -7.60 L 448.80 -7.43 L 448.74 -7.32 L 448.67 -7.29 L 448.58 -7.29 L 448.48 -7.28"/>
    <path id="sk_15_7" style="fill:none;stroke:black;stroke-width:0.16" d="M 448.36 -7.27 L 448.21 -7.21 L 448.05 -7.11 L 447.86 -6.95 L 447.67 -6.71 L 447.46 -6.41 L 447.24 -6.04 L 446.98 -5.59 L 446.69 -5.09 L 446.37 -4.56 L 446.00 -4.02 L 445.58 -3.49"/>
    <path id="sk_15_8" style="fill:none;stroke:black;stroke-width:0.13" d="M 445.08 -2.98 L 444.52 -2.50 L 443.89 -2.07"/>
    <path id="sk_15_9" style="fill:none;stroke:black;stroke-width:0.11" d="M 443.19 -1.68"/>
    <path id="sk_15_10" style="fill:none;stroke:black;stroke-width:0.08" d="M 442.42 -1.37"/>
    <path id="sk_15_11" style="fill:none;stroke:black;stroke-width:0.05" d="M 441.61 -1.16 L 440.80 -1.04"/>
    <path id="sk_15_12" style="fill:none;stroke:black;stroke-width:0.03" d="M 440.02 -1.03"/>
    <path id="sk_15_13" style="fill:none;stroke:black;stroke-width:0.026458" d="M 439.69 -0.74"/>
    <path id="sk_16_0" style="fill:none;stroke:black;stroke-width:0.05" d="M 439.69 -0.74 L 439.69 -0.74 L 440.11 -0.74 L 440.53 430.08"/>
    <path id="sk_16_1" style="fill:none;stroke:black;stroke-width:0.08" d="M 440.95 430.08 L 441.56 429.12 L 442.17 428.16 L 442.78 427.20"/>
    <path id="sk_16_2" style="fill:none;stroke:black;stroke-width:0.11" d="M 443.37 426.24"/>
    <path id="sk_16_3" style="fill:none;stroke:black;stroke-width:0.13" d="M 443.92 425.26 L 444.43 424.25"/>
    <path id="sk_16_4" style="fill:none;stroke:black;stroke-width:0.11" d="M 444.91 423.22 L 445.34 422.16 L 445.72 421.08 L 446.06 419.98"/>
    <path id="sk_16_5" style="fill:none;stroke:black;stroke-width:0.08" d="M 446.36 418.86 L 446.66 417.72 L 446.98 416.59 L 447.36 415.46 L 447.81 414.36 L 448.28 413.29 L 448.78 412.23 L 449.30 411.17 L 449.85 410.14 L 450.44 409.13 L 451.15 408.22 L 451.75 407.19 L 452.46 406.28 L 453.17 405.37 L 453.88 404.46 L 454.59 403.55 L 455.30 402.64 L 456.11 401.76 L 456.82 400.85"/>
    <path id="sk_16_6" style="fill:none;stroke:black;stroke-width:0.05" d="M 457.53 399.94 L 458.24 399.03 L 458.95 398.12 L 459.66 397.21 L 460.37 396.30 L 461.08 395.39"/>
    <path id="sk_16_7" style="fill:none;stroke:black;stroke-width:0.03" d="M 461.79 394.48 L 462.59 393.50 L 463.30 392.59 L 464.12 391.60 L 464.93 390.65 L 465.78 389.69"/>
    <path id="sk_16_8" style="fill:none;stroke:black;stroke-width:0.00" d="M 466.63 388.73 L 467.51 387.77 L 468.43 386.80 L 469.37 385.84 L 470.37 384.89 L 471.41 383.96 L 472.47 383.03"/>
    <path id="sk_16_9" style="fill:none;stroke:black;stroke-width:-0.03" d="M 473.56 382.12 L 474.67 381.20 L 475.79 380.28 L 476.89 379.37 L 477.97 378.47 L 479.01 377.57"/>
    <path id="sk_16_10" style="fill:none;stroke:black;stroke-width:-0.05" d="M 480.02 376.66 L 481.00 375.77 L 481.93 374.88 L 482.79 373.99 L 483.59 373.08 L 484.30 372.17"/>
    <path id="sk_16_11" style="fill:none;stroke:black;stroke-width:-0.08" d="M 485.01 371.26 L 485.64 370.26 L 486.23 369.30 L 486.72 368.30 L 487.12 367.25"/>
    <path id="sk_16_12" style="fill:none;stroke:black;stroke-width:-0.11" d="M 487.39 366.16 L 487.56 365.03 L 487.66 363.86 L 487.72 362.68 L 487.79 361.50"/>
    <path id="sk_16_13" style="fill:none;stroke:black;stroke-width:-0.13" d="M 487.94 360.31 L 488.20 359.15 L 488.61 358.04 L 489.15 356.97 L 489.80 355.95 L 490.53 354.93"/>
    <path id="sk_16_14" style="fill:none;stroke:black;stroke-width:-0.16" d="M 491.36 353.92 L 492.31 352.92 L 493.37 351.95 L 494.53 351.00 L 495.74 350.10 L 496.94 349.23 L 498.14 348.37"/>
    <path id="sk_16_15" style="fill:none;stroke:black;stroke-width:-0.19" d="M 499.28 347.53 L 500.34 346.70 L 501.34 345.85 L 502.23 344.98 L 503.03 344.10"/>
    <path id="sk_16_16" style="fill:none;stroke:black;stroke-width:-0.21" d="M 503.74 343.19 L 504.45 342.28"/>
    <path id="sk_16_17" style="fill:none;stroke:black;stroke-width:-0.24" d="M 504.96 341.25"/>
    <path id="sk_16_18" style="fill:none;stroke:black;stroke-width:-0.29" d="M 505.44 340.28"/>
    <path id="sk_16_19" style="fill:none;stroke:black;stroke-width:-0.32" d="M 505.86 339.31"/>
    <path id="sk_16_20" style="fill:none;stroke:black;stroke-width:-0.34" d="M 506.22 338.31"/>
    <path id="sk_16_21" style="fill:none;stroke:black;stroke-width:-0.37" d="M 506.57 337.29"/>
    <path id="sk_16_22" style="fill:none;stroke:black;stroke-width:0.05" d="M 506.93 336.25"/>
    <path id="sk_16_23" style="fill:none;stroke:black;stroke-width:0.052916" d="M 507.33 335.19"/>
    <path id="sk_17_0" style="fill:none;stroke:black;stroke-width:6.67" d="M 507.33 335.19 L 507.33 335.19"/>
    <path id="sk_17_1" style="fill:none;stroke:black;stroke-width:0.11" d="M 2.98 335.19 L 2.98 335.19 L 2.98 335.19"/>
    <path id="sk_17_2" style="fill:none;stroke:black;stroke-width:0.13" d="M 2.98 335.19"/>
    <path id="sk_17_3" style="fill:none;stroke:black;stroke-width:0.19" d="M 2.87 335.13"/>
    <path id="sk_17_4" style="fill:none;stroke:black;stroke-width:0.21" d="M 2.87 335.13"/>
    <path id="sk_17_5" style="fill:none;stroke:black;stroke-width:0.24" d="M 2.69 335.08"/>
    <path id="sk_17_6" style="fill:none;stroke:black;stroke-width:0.21" d="M 2.55 335.01 L 2.36 334.91 L 2.11 334.75 L 1.78 334.55 L 1.37 334.28 L 0.86 333.95 L 0.29 333.59 L -0.28 333.17 L -0.76 332.74 L -1.10 332.36 L -1.29 332.04 L -1.34 331.81 L -1.27 331.66"/>
    <path id="sk_17_7" style="fill:none;stroke:black;stroke-width:0.19" d="M -1.07 331.57 L -0.71 331.53 L -0.20 331.54"/>
    <path id="sk_17_8" style="fill:none;stroke:black;stroke-width:0.16" d="M 0.46 331.63 L 1.21 331.78"/>
    <path id="sk_17_9" style="fill:none;stroke:black;stroke-width:0.13" d="M 1.99 332.00"/>
    <path id="sk_17_10" style="fill:none;stroke:black;stroke-width:0.11" d="M 2.74 332.26"/>
    <path id="sk_17_11" style="fill:none;stroke:black;stroke-width:0.08" d="M 3.40 332.55 L 3.97 332.84"/>
    <path id="sk_17_12" style="fill:none;stroke:black;stroke-width:0.05" d="M 4.42 333.13 L 4.76 333.39"/>
    <path id="sk_17_13" style="fill:none;stroke:black;stroke-width:0.052916" d="M 5.01 333.63 L 5.13 333.84"/>
    <path id="sk_18_0" style="fill:none;stroke:black;stroke-width:0.052916" d="M 5.13 333.84 L 5.13 333.84"/>
    <path id="sk_19_0" style="fill:none;stroke:black;stroke-width:0.19" d="M 5.00 333.74"/>
    <path id="sk_19_1" style="fill:none;stroke:black;stroke-width:0.21" d="M 5.00 333.74"/>
    <path id="sk_19_2" style="fill:none;stroke:black;stroke-width:0.19" d="M 5.00 333.64 L 5.01 333.55 L 5.04 333.42 L 5.07 333.23"/>
    <path id="sk_19_3" style="fill:none;stroke:black;stroke-width:0.16" d="M 5.12 332.95"/>
    <path id="sk_19_4" style="fill:none;stroke:black;stroke-width:0.13" d="M 5.16 332.61"/>
    <path id="sk_19_5" style="fill:none;stroke:black;stroke-width:0.11" d="M 5.20 332.23"/>
    <path id="sk_19_6" style="fill:none;stroke:black;stroke-width:0.08" d="M 5.21 331.89"/>
    <path id="sk_19_7" style="fill:none;stroke:black;stroke-width:0.05" d="M 5.20 331.61 L 5.21 331.41"/>
    <path id="sk_19_8" style="fill:none;stroke:black;stroke-width:0.052916" d="M 5.23 331.26"/>
    <path id="sk_20_0" style="fill:none;stroke:black;stroke-width:0.052916" d="M 5.23 331.26 L 5.23 331.26 L 5.23 331.26 L 5.23 331.26 L 5.23 331.26 L 5.08 331.25 L 4.96 331.21 L 4.81 331.14 L 4.64 331.07 L 4.48 330.99 L 4.32 330.92 L 4.17 330.87"/>
    <path id="sk_21_0" style="fill:none;stroke:black;stroke-width:0.08" d="M 4.17 330.87 L 4.17 330.87 L 4.17 331.28 L 4.15 331.60"/>
    <path id="sk_21_1" style="fill:none;stroke:black;stroke-width:0.13" d="M 4.15 332.01"/>
    <path id="sk_21_2" style="fill:none;stroke:black;stroke-width:0.16" d="M 4.30 332.39"/>
    <path id="sk_21_3" style="fill:none;stroke:black;stroke-width:0.19" d="M 4.45 332.81"/>
    <path id="sk_21_4" style="fill:none;stroke:black;stroke-width:0.21" d="M 4.65 333.23"/>
    <path id="sk_21_5" style="fill:none;stroke:black;stroke-width:0.24" d="M 4.91 333.64"/>
    <path id="sk_21_6" style="fill:none;stroke:black;stroke-width:0.21" d="M 5.22 334.03 L 5.60 334.42 L 6.06 334.81 L 6.52 335.20 L 6.99 335.60 L 7.41 335.98 L 7.76 336.37 L 8.05 336.72 L 8.26 337.05 L 8.41 337.38"/>
    <path id="sk_21_7" style="fill:none;stroke:black;stroke-width:0.24" d="M 8.48 337.70 L 8.47 338.02 L 8.40 338.33 L 8.27 338.61 L 8.08 338.89 L 7.83 339.15 L 7.53 339.41 L 7.19 339.67 L 6.81 339.92 L 6.40 340.16 L 5.94 340.38"/>
    <path id="sk_21_8" style="fill:none;stroke:black;stroke-width:0.21" d="M 5.45 340.58 L 4.98 340.77 L 4.59 340.98 L 4.29 341.23 L 4.09 341.49 L 3.95 341.79 L 3.86 342.09 L 3.80 342.40 L 3.80 342.81 L 3.74 343.07 L 3.74 343.48 L 3.73 343.80"/>
    <path id="sk_21_9" style="fill:none;stroke:black;stroke-width:0.19" d="M 3.73 344.21"/>
    <path id="sk_21_10" style="fill:none;stroke:black;stroke-width:0.16" d="M 3.73 344.62"/>
    <path id="sk_21_11" style="fill:none;stroke:black;stroke-width:0.13" d="M 3.73 345.03"/>
    <path id="sk_21_12" style="fill:none;stroke:black;stroke-width:0.05" d="M 3.60 345.38"/>
    <path id="sk_21_13" style="fill:none;stroke:black;stroke-width:0.052916" d="M 3.47 345.78"/>
    <path id="sk_22_0" style="fill:none;stroke:black;stroke-width:0.08" d="M 3.47 345.78 L 3.47 345.78 L 2.75 345.78"/>
    <path id="sk_22_1" style="fill:none;stroke:black;stroke-width:0.11" d="M 2.65 345.78"/>
    <path id="sk_22_2" style="fill:none;stroke:black;stroke-width:0.16" d="M 2.54 345.79"/>
    <path id="sk_22_3" style="fill:none;stroke:black;stroke-width:0.19" d="M 2.45 345.78"/>
    <path id="sk_22_4" style="fill:none;stroke:black;stroke-width:0.21" d="M 2.45 345.78"/>
    <path id="sk_22_5" style="fill:none;stroke:black;stroke-width:0.24" d="M 2.36 345.75 L 2.36 345.75 L 2.40 345.65"/>
    <path id="sk_22_6" style="fill:none;stroke:black;stroke-width:0.21" d="M 2.51 345.57 L 2.68 345.44 L 2.98 345.26 L 3.39 345.02 L 3.93 344.70 L 4.57 344.28 L 5.23 343.78 L 5.88 343.20"/>
    <path id="sk_22_7" style="fill:none;stroke:black;stroke-width:0.19" d="M 6.45 342.58"/>
    <path id="sk_22_8" style="fill:none;stroke:black;stroke-width:0.16" d="M 6.93 341.95"/>
    <path id="sk_22_9" style="fill:none;stroke:black;stroke-width:0.11" d="M 7.32 341.37"/>
    <path id="sk_22_10" style="fill:none;stroke:black;stroke-width:0.08" d="M 7.61 340.86"/>
    <path id="sk_22_11" style="fill:none;stroke:black;stroke-width:0.05" d="M 7.81 340.44 L 8.37 340.51"/>
    <path id="sk_22_12" style="fill:none;stroke:black;stroke-width:0.052916" d="M 8.40 340.28"/>
  </g>
</svg>
