<?xml version="1.0" encoding="UTF-8"?>
<svg xmlns="http://www.w3.org/2000/svg" width="210mm" height="148mm" viewBox="0 0 210 148">
  <g id="layer0">
    <path id="sk_0_0" style="fill:none;stroke:black;stroke-width:0.13" d="M 144.16 90.62"/>
    <path id="sk_0_1" style="fill:none;stroke:black;stroke-width:0.16" d="M 144.06 90.75"/>
    <path id="sk_0_2" style="fill:none;stroke:black;stroke-width:0.19" d="M 143.99 90.84 L 143.99 90.84"/>
    <path id="sk_0_3" style="fill:none;stroke:black;stroke-width:0.21" d="M 143.91 91.00 L 143.89 91.10 L 143.89 91.10 L 143.89 91.27 L 143.91 91.37 L 143.93 91.47"/>
    <path id="sk_0_4" style="fill:none;stroke:black;stroke-width:0.24" d="M 143.95 91.60 L 143.99 91.73 L 144.03 91.87 L 144.07 92.02 L 144.13 92.17"/>
    <path id="sk_0_5" style="fill:none;stroke:black;stroke-width:0.26" d="M 144.18 92.33 L 144.26 92.50 L 144.34 92.68 L 144.44 92.86 L 144.57 93.05 L 144.71 93.25 L 144.87 93.45 L 145.04 93.66 L 145.24 93.87"/>
    <path id="sk_0_6" style="fill:none;stroke:black;stroke-width:0.24" d="M 145.44 94.08 L 145.65 94.28 L 145.88 94.49 L 146.12 94.69 L 146.39 94.90 L 146.66 95.10 L 146.95 95.28 L 147.25 95.46 L 147.55 95.61 L 147.87 95.74 L 148.22 95.88 L 148.57 96.02 L 148.89 96.15 L 149.21 96.28 L 149.55 96.39 L 149.90 96.48 L 150.28 96.57 L 150.72 96.64 L 151.17 96.70 L 151.61 96.76 L 152.07 96.81 L 152.50 96.87 L 152.90 96.92 L 153.32 96.97 L 153.72 97.00 L 154.08 97.02 L 154.84 97.01 L 155.60 96.98 L 156.34 96.91 L 157.08 96.82 L 157.81 96.67 L 158.53 96.48 L 159.25 96.25 L 159.96 95.97 L 160.66 95.67 L 161.34 95.35 L 161.99 95.03 L 162.62 94.71 L 163.24 94.40 L 163.83 94.14 L 164.39 93.88 L 164.94 93.63 L 165.46 93.39 L 165.96 93.14 L 166.44 92.93 L 166.91 92.74 L 167.37 92.58 L 167.83 92.48 L 168.30 92.40 L 168.78 92.35 L 169.25 92.34 L 169.70 92.34 L 170.14 92.38 L 170.56 92.41 L 170.97 92.45 L 171.34 92.46 L 171.69 92.46 L 172.02 92.48 L 172.33 92.47 L 172.62 92.47 L 172.91 92.47"/>
    <path id="sk_0_7" style="fill:none;stroke:black;stroke-width:0.26" d="M 173.18 92.44 L 173.45 92.43 L 173.72 92.42 L 173.99 92.42 L 174.28 92.42 L 174.58 92.44 L 174.88 92.47 L 175.22 92.52 L 175.57 92.58"/>
    <path id="sk_0_8" style="fill:none;stroke:black;stroke-width:0.24" d="M 175.93 92.66 L 176.30 92.74 L 176.65 92.82 L 176.99 92.90 L 177.33 93.06 L 177.68 93.23 L 178.03 93.42 L 178.41 93.62 L 178.82 93.85 L 179.28 94.09 L 179.77 94.35 L 180.29 94.64 L 180.85 94.95 L 181.43 95.29 L 182.03 95.65 L 182.64 96.05 L 183.24 96.48 L 183.83 96.95 L 184.42 97.47 L 185.00 98.02 L 185.59 98.61 L 186.17 99.24 L 186.74 99.91 L 187.29 100.62 L 187.83 101.36 L 188.35 102.12 L 188.87 102.90 L 189.40 103.69 L 189.96 104.50 L 190.54 105.33 L 191.15 106.16 L 191.78 106.98 L 192.41 107.80 L 193.04 108.59 L 193.67 109.38 L 194.31 110.15 L 194.95 110.94 L 195.62 111.74 L 196.29 112.54 L 196.96 113.34 L 197.64 114.12 L 198.31 114.88 L 199.00 115.64 L 199.71 116.38 L 200.43 117.13 L 201.15 117.85 L 201.89 118.54 L 202.62 119.21 L 203.36 119.82 L 204.12 120.41 L 204.87 120.95 L 205.64 121.44 L 206.41 121.89 L 207.17 122.31 L 207.92 122.69 L 208.64 122.97 L 209.38 123.35"/>
    <path id="sk_0_9" style="fill:none;stroke:black;stroke-width:0.21" d="M 210.10 123.63 L 210.82 123.91 L 211.54 124.19"/>
    <path id="sk_0_10" style="fill:none;stroke:black;stroke-width:0.19" d="M 212.26 124.47"/>
    <path id="sk_0_11" style="fill:none;stroke:black;stroke-width:0.16" d="M 212.98 124.75"/>
    <path id="sk_0_12" style="fill:none;stroke:black;stroke-width:0.13" d="M 213.69 124.93"/>
    <path id="sk_0_13" style="fill:none;stroke:black;stroke-width:0.08" d="M 214.41 125.21"/>
    <path id="sk_0_14" style="fill:none;stroke:black;stroke-width:0.05" d="M 215.10 125.37"/>
    <path id="sk_0_15" style="fill:none;stroke:black;stroke-width:0.052916" d="M 215.81 125.56"/>
    <path id="sk_1_0" style="fill:none;stroke:black;stroke-width:0.08" d="M 152.40 94.49 L 152.40 94.49"/>
    <path id="sk_1_1" style="fill:none;stroke:black;stroke-width:0.11" d="M 152.50 94.50 L 152.50 94.50"/>
    <path id="sk_1_2" style="fill:none;stroke:black;stroke-width:0.13" d="M 152.50 94.50"/>
    <path id="sk_1_3" style="fill:none;stroke:black;stroke-width:0.16" d="M 152.60 94.49 L 152.60 94.49 L 152.60 94.49"/>
    <path id="sk_1_4" style="fill:none;stroke:black;stroke-width:0.19" d="M 152.60 94.49 L 152.69 94.36 L 152.69 94.36"/>
    <path id="sk_1_5" style="fill:none;stroke:black;stroke-width:0.21" d="M 152.73 94.25 L 152.73 94.25 L 152.79 94.12 L 152.79 94.12"/>
    <path id="sk_1_6" style="fill:none;stroke:black;stroke-width:0.24" d="M 152.85 93.96 L 152.85 93.96 L 152.93 93.80 L 152.98 93.71 L 153.03 93.61 L 153.07 93.49 L 153.14 93.37 L 153.20 93.25 L 153.28 93.11 L 153.35 92.98 L 153.42 92.82"/>
    <path id="sk_1_7" style="fill:none;stroke:black;stroke-width:0.26" d="M 153.50 92.64 L 153.57 92.47 L 153.64 92.27 L 153.71 92.08 L 152.50 91.89 L 151.29 91.68 L 150.07 91.45 L 148.85 91.21 L 147.61 90.95 L 146.38 90.69 L 145.13 90.40 L 143.86 90.11 L 142.59 89.79 L 141.31 89.47 L 140.00 89.15 L 138.77 88.83 L 137.53 88.49 L 136.28 88.15 L 135.03 87.81 L 133.77 87.49 L 132.50 87.19"/>
    <path id="sk_1_8" style="fill:none;stroke:black;stroke-width:0.24" d="M 131.25 86.93 L 130.00 86.68 L 128.77 86.45 L 127.54 86.23 L 126.29 86.02 L 125.04 85.81 L 123.77 85.60 L 122.90 85.38 L 122.00 85.17 L 121.10 84.96 L 120.20 84.77 L 119.29 84.61 L 118.39 84.45 L 117.48 84.30 L 116.57 84.23 L 115.68 84.18 L 114.79 84.14 L 113.92 84.12 L 113.05 84.09"/>
    <path id="sk_1_9" style="fill:none;stroke:black;stroke-width:0.21" d="M 112.19 84.07 L 111.33 84.07"/>
    <path id="sk_1_10" style="fill:none;stroke:black;stroke-width:0.19" d="M 110.57 84.11"/>
    <path id="sk_1_11" style="fill:none;stroke:black;stroke-width:0.13" d="M 109.69 84.14"/>
    <path id="sk_1_12" style="fill:none;stroke:black;stroke-width:0.11" d="M 108.93 84.18"/>
    <path id="sk_1_13" style="fill:none;stroke:black;stroke-width:0.08" d="M 108.17 84.22"/>
    <path id="sk_1_14" style="fill:none;stroke:black;stroke-width:0.05" d="M 107.29 84.41"/>
    <path id="sk_1_15" style="fill:none;stroke:black;stroke-width:0.052916" d="M 106.53 84.45"/>
    <path id="sk_2_0" style="fill:none;stroke:black;stroke-width:0.08" d="M 150.20 90.44 L 150.20 90.44 L 150.20 90.44 L 150.19 90.35 L 150.19 90.35 L 150.19 90.35"/>
    <path id="sk_2_1" style="fill:none;stroke:black;stroke-width:0.11" d="M 150.19 90.35 L 150.10 90.38"/>
    <path id="sk_2_2" style="fill:none;stroke:black;stroke-width:0.13" d="M 150.10 90.38 L 150.10 90.38"/>
    <path id="sk_2_3" style="fill:none;stroke:black;stroke-width:0.16" d="M 150.10 90.38 L 150.06 90.49"/>
    <path id="sk_2_4" style="fill:none;stroke:black;stroke-width:0.19" d="M 150.06 90.49 L 150.07 90.61"/>
    <path id="sk_2_5" style="fill:none;stroke:black;stroke-width:0.21" d="M 150.07 90.61 L 150.09 90.76"/>
    <path id="sk_2_6" style="fill:none;stroke:black;stroke-width:0.24" d="M 150.10 90.85 L 150.10 90.85 L 150.13 91.02 L 150.13 91.11 L 150.13 91.20 L 150.13 91.29"/>
    <path id="sk_2_7" style="fill:none;stroke:black;stroke-width:0.21" d="M 150.13 91.38 L 150.13 91.38 L 150.11 91.54 L 150.11 91.54 L 150.02 91.70 L 150.02 91.70 L 149.92 91.83 L 149.92 91.83 L 149.78 91.97 L 149.69 92.06 L 149.59 92.16 L 149.48 92.26 L 149.35 92.36 L 149.21 92.46 L 149.04 92.57 L 148.88 92.67 L 148.72 92.76 L 148.57 92.84 L 148.44 92.89 L 148.31 92.93 L 148.18 92.09 L 148.08 91.23 L 147.98 90.35 L 147.91 89.47 L 147.87 88.58 L 147.85 87.69 L 147.87 86.82 L 147.92 85.95 L 147.99 85.08 L 148.08 84.20 L 148.20 83.31 L 148.34 82.43 L 148.53 81.57 L 148.75 80.73 L 148.97 79.92 L 149.21 79.14 L 149.42 78.38 L 149.63 77.65 L 149.83 76.95 L 150.02 76.27 L 150.20 75.62 L 150.38 74.98 L 150.56 74.36 L 150.73 73.76 L 150.90 73.19 L 151.06 72.63 L 151.20 72.11 L 151.31 71.58 L 151.40 71.05 L 151.45 70.52 L 151.49 69.97 L 151.47 68.22 L 151.44 66.45 L 151.40 64.57"/>
    <path id="sk_2_8" style="fill:none;stroke:black;stroke-width:0.19" d="M 151.37 62.82 L 151.33 60.94"/>
    <path id="sk_2_9" style="fill:none;stroke:black;stroke-width:0.16" d="M 151.29 59.06"/>
    <path id="sk_2_10" style="fill:none;stroke:black;stroke-width:0.05" d="M 151.25 57.18"/>
    <path id="sk_2_11" style="fill:none;stroke:black;stroke-width:0.052916" d="M 151.21 55.30"/>
    <path id="sk_3_0" style="fill:none;stroke:black;stroke-width:0.08" d="M 149.54 85.95 L 149.54 85.95 L 149.63 85.94 L 149.63 85.94"/>
    <path id="sk_3_1" style="fill:none;stroke:black;stroke-width:0.11" d="M 149.77 85.98 L 149.77 85.98"/>
    <path id="sk_3_2" style="fill:none;stroke:black;stroke-width:0.13" d="M 149.86 86.06 L 149.86 86.06"/>
    <path id="sk_3_3" style="fill:none;stroke:black;stroke-width:0.16" d="M 149.95 86.17 L 149.95 86.17 L 150.01 86.29"/>
    <path id="sk_3_4" style="fill:none;stroke:black;stroke-width:0.19" d="M 150.01 86.29 L 150.01 86.41 L 150.01 86.41"/>
    <path id="sk_3_5" style="fill:none;stroke:black;stroke-width:0.21" d="M 149.93 86.55 L 149.93 86.55 L 149.77 86.70"/>
    <path id="sk_3_6" style="fill:none;stroke:black;stroke-width:0.24" d="M 149.66 86.76 L 149.53 86.84 L 149.38 86.93 L 149.21 87.02 L 149.01 87.13 L 148.81 87.22 L 148.61 87.31"/>
    <path id="sk_3_7" style="fill:none;stroke:black;stroke-width:0.238122" d="M 148.43 87.39 L 148.28 87.47 L 148.15 87.53 L 148.03 87.57 L 147.92 87.61 L 147.92 87.61 L 147.75 87.63 L 147.75 87.63 L 147.60 87.57 L 147.51 87.52 L 147.40 87.44 L 147.30 87.35 L 147.16 87.23 L 147.02 87.06 L 146.87 86.86 L 146.71 86.64 L 146.54 86.37 L 146.38 86.08 L 146.24 85.77 L 146.13 85.46 L 146.06 85.15 L 146.03 84.85 L 146.04 84.57 L 146.09 84.32 L 146.19 84.10 L 146.34 83.92 L 146.53 83.78 L 146.77 83.67 L 147.06 83.60 L 147.39 83.57 L 147.74 83.56 L 148.10 83.60 L 148.44 83.67 L 148.75 83.77 L 149.03 83.89 L 149.28 84.01 L 149.49 84.13 L 149.66 84.26 L 149.82 84.41 L 149.94 84.57 L 150.03 84.74 L 150.11 84.92 L 150.16 85.09 L 150.13 84.38"/>
  </g>
</svg>
