<?xml version="1.0" encoding="UTF-8"?>
<svg xmlns="http://www.w3.org/2000/svg" width="210mm" height="148mm" viewBox="0 0 210 148">
  <g id="layer0">
    <path id="sk_0_0" style="fill:none;stroke:black;stroke-width:0.11" d="M 93.88 104.22"/>
    <path id="sk_0_1" style="fill:none;stroke:black;stroke-width:0.13" d="M 93.82 104.39"/>
    <path id="sk_0_2" style="fill:none;stroke:black;stroke-width:0.16" d="M 93.81 104.52"/>
    <path id="sk_0_3" style="fill:none;stroke:black;stroke-width:0.19" d="M 93.83 104.69"/>
    <path id="sk_0_4" style="fill:none;stroke:black;stroke-width:0.21" d="M 93.87 104.89 L 93.94 105.13 L 94.05 105.41"/>
    <path id="sk_0_5" style="fill:none;stroke:black;stroke-width:0.24" d="M 94.15 105.72 L 94.29 106.06 L 94.45 106.42 L 94.66 106.83"/>
    <path id="sk_0_6" style="fill:none;stroke:black;stroke-width:0.21" d="M 94.91 107.26 L 95.18 107.72 L 95.49 108.20 L 95.80 108.67 L 96.10 109.12 L 96.39 109.52 L 96.63 109.83 L 96.84 110.06 L 97.00 110.22 L 97.13 110.30 L 97.25 110.35 L 97.37 110.37 L 97.49 110.34 L 97.63 110.28 L 97.81 110.14 L 98.03 109.91 L 98.32 109.59 L 98.66 109.17 L 99.02 108.64 L 99.39 108.05"/>
    <path id="sk_0_7" style="fill:none;stroke:black;stroke-width:0.24" d="M 99.76 107.43 L 100.11 106.82 L 100.46 106.28 L 100.80 105.81 L 101.14 105.43 L 101.46 105.14 L 101.78 104.96"/>
    <path id="sk_0_8" style="fill:none;stroke:black;stroke-width:0.26" d="M 102.08 104.89 L 102.40 104.94 L 102.77 105.11 L 103.17 105.38 L 103.57 105.74 L 103.96 106.19 L 104.32 106.71"/>
    <path id="sk_0_9" style="fill:none;stroke:black;stroke-width:0.24" d="M 104.65 107.28 L 104.94 107.92 L 105.18 108.58 L 105.37 109.24 L 105.48 109.87"/>
    <path id="sk_0_10" style="fill:none;stroke:black;stroke-width:0.21" d="M 105.53 110.42 L 105.53 110.90 L 105.47 111.31 L 105.37 111.64"/>
    <path id="sk_0_11" style="fill:none;stroke:black;stroke-width:0.19" d="M 105.23 111.89"/>
    <path id="sk_0_12" style="fill:none;stroke:black;stroke-width:0.16" d="M 105.09 112.06"/>
    <path id="sk_0_13" style="fill:none;stroke:black;stroke-width:0.11" d="M 104.93 112.15"/>
    <path id="sk_0_14" style="fill:none;stroke:black;stroke-width:0.08" d="M 104.75 112.17"/>
    <path id="sk_0_15" style="fill:none;stroke:black;stroke-width:0.05" d="M 104.58 112.15"/>
    <path id="sk_0_16" style="fill:none;stroke:black;stroke-width:0.052916" d="M 104.36 112.04"/>
    <path id="sk_1_0" style="fill:none;stroke:black;stroke-width:0.08" d="M 104.36 112.04 L 106.53 102.37 L 106.55 102.50"/>
    <path id="sk_1_1" style="fill:none;stroke:black;stroke-width:0.13" d="M 106.57 102.66 L 106.52 102.81"/>
    <path id="sk_1_2" style="fill:none;stroke:black;stroke-width:0.16" d="M 106.43 102.93 L 106.30 103.04"/>
    <path id="sk_1_3" style="fill:none;stroke:black;stroke-width:0.19" d="M 106.11 103.12 L 105.84 103.16"/>
    <path id="sk_1_4" style="fill:none;stroke:black;stroke-width:0.21" d="M 105.46 103.18 L 104.96 103.14 L 104.30 103.04 L 103.48 102.86"/>
    <path id="sk_1_5" style="fill:none;stroke:black;stroke-width:0.19" d="M 102.52 102.59 L 101.39 102.24 L 100.21 101.80 L 99.08 101.29 L 98.09 100.78 L 97.32 100.27 L 96.78 99.81"/>
    <path id="sk_1_6" style="fill:none;stroke:black;stroke-width:0.21" d="M 96.44 99.40 L 96.28 99.03 L 96.30 98.70 L 96.48 98.41 L 96.86 98.17 L 97.43 97.98 L 98.20 97.86 L 99.13 97.79 L 100.15 97.77 L 101.21 97.79"/>
    <path id="sk_1_7" style="fill:none;stroke:black;stroke-width:0.19" d="M 102.28 97.85 L 103.32 97.97 L 104.30 98.12 L 105.21 98.30 L 106.01 98.48 L 106.71 98.66"/>
    <path id="sk_1_8" style="fill:none;stroke:black;stroke-width:0.16" d="M 107.33 98.81 L 107.84 98.94"/>
    <path id="sk_1_9" style="fill:none;stroke:black;stroke-width:0.13" d="M 108.23 99.08"/>
    <path id="sk_1_10" style="fill:none;stroke:black;stroke-width:0.08" d="M 108.50 99.20"/>
    <path id="sk_1_11" style="fill:none;stroke:black;stroke-width:0.05" d="M 108.60 99.33"/>
    <path id="sk_1_12" style="fill:none;stroke:black;stroke-width:0.052916" d="M 108.54 99.46"/>
    <path id="sk_2_0" style="fill:none;stroke:black;stroke-width:0.11" d="M 108.54 99.46"/>
    <path id="sk_2_1" style="fill:none;stroke:black;stroke-width:0.13" d="M 108.37 99.34"/>
    <path id="sk_2_2" style="fill:none;stroke:black;stroke-width:0.16" d="M 108.16 99.17"/>
    <path id="sk_2_3" style="fill:none;stroke:black;stroke-width:0.13" d="M 107.97 98.94 L 107.79 98.64 L 107.62 98.27 L 107.48 97.85 L 107.38 97.39"/>
    <path id="sk_2_4" style="fill:none;stroke:black;stroke-width:0.11" d="M 107.33 96.90 L 107.36 96.44"/>
    <path id="sk_2_5" style="fill:none;stroke:black;stroke-width:0.08" d="M 107.45 95.99"/>
    <path id="sk_2_6" style="fill:none;stroke:black;stroke-width:0.05" d="M 107.58 95.57"/>
    <path id="sk_2_7" style="fill:none;stroke:black;stroke-width:0.052916" d="M 107.72 95.17"/>
    <path id="sk_3_0" style="fill:none;stroke:black;stroke-width:0.08" d="M 107.72 95.17 L 108.10 95.17 L 108.48 95.18"/>
    <path id="sk_3_1" style="fill:none;stroke:black;stroke-width:0.11" d="M 108.72 95.13"/>
    <path id="sk_3_2" style="fill:none;stroke:black;stroke-width:0.13" d="M 108.95 95.08"/>
    <path id="sk_3_3" style="fill:none;stroke:black;stroke-width:0.16" d="M 109.23 95.06"/>
    <path id="sk_3_4" style="fill:none;stroke:black;stroke-width:0.19" d="M 109.61 95.07 L 109.90 95.02 L 110.28 95.03 L 110.66 95.04 L 111.04 95.05 L 111.51 95.05"/>
    <path id="sk_3_5" style="fill:none;stroke:black;stroke-width:0.21" d="M 111.89 95.06 L 112.48 95.12 L 113.07 95.18 L 113.74 95.27 L 114.52 95.38 L 115.41 95.52"/>
    <path id="sk_3_6" style="fill:none;stroke:black;stroke-width:0.19" d="M 116.40 95.71 L 117.46 95.94 L 118.59 96.18 L 119.74 96.45 L 120.94 96.73 L 122.13 97.02 L 123.29 97.32 L 124.40 97.61 L 125.42 97.87 L 126.35 98.09"/>
    <path id="sk_3_7" style="fill:none;stroke:black;stroke-width:0.16" d="M 127.18 98.27"/>
    <path id="sk_3_8" style="fill:none;stroke:black;stroke-width:0.11" d="M 127.89 98.41"/>
    <path id="sk_3_9" style="fill:none;stroke:black;stroke-width:0.05" d="M 128.47 98.49"/>
    <path id="sk_3_10" style="fill:none;stroke:black;stroke-width:0.052916" d="M 128.85 98.50"/>
    <path id="sk_4_0" style="fill:none;stroke:black;stroke-width:0.03" d="M 128.85 98.50 L 430.10 98.50 L 430.24 98.51 L 430.50 98.54 L 430.86 98.59 L 431.29 98.66 L 431.74 98.76 L 432.19 98.85 L 432.58 98.91"/>
    <path id="sk_4_1" style="fill:none;stroke:black;stroke-width:0.00" d="M 432.88 98.96 L 433.08 98.95 L 433.18 98.89"/>
    <path id="sk_4_2" style="fill:none;stroke:black;stroke-width:-0.03" d="M 433.18 98.79 L 433.09 98.63"/>
    <path id="sk_4_3" style="fill:none;stroke:black;stroke-width:-0.05" d="M 432.89 98.43"/>
    <path id="sk_4_4" style="fill:none;stroke:black;stroke-width:-0.08" d="M 432.56 98.16"/>
    <path id="sk_4_5" style="fill:none;stroke:black;stroke-width:-0.11" d="M 432.11 97.82"/>
    <path id="sk_4_6" style="fill:none;stroke:black;stroke-width:-0.13" d="M 431.49 97.41"/>
    <path id="sk_4_7" style="fill:none;stroke:black;stroke-width:-0.16" d="M 430.76 96.93"/>
    <path id="sk_4_8" style="fill:none;stroke:black;stroke-width:-0.19" d="M 429.95 96.43 L 429.10 95.89 L 428.28 95.37 L 427.53 94.87 L 426.90 94.40 L 426.45 94.01"/>
    <path id="sk_4_9" style="fill:none;stroke:black;stroke-width:-0.16" d="M 426.18 93.67 L 426.07 93.42 L 426.10 93.24 L 426.29 93.09 L 426.63 93.01"/>
    <path id="sk_4_10" style="fill:none;stroke:black;stroke-width:-0.19" d="M 427.11 92.98 L 427.68 93.00 L 428.30 93.08 L 428.94 93.20 L 429.54 93.35 L 430.09 93.51 L 430.54 93.70 L 430.88 93.87 L 431.13 94.02"/>
    <path id="sk_4_11" style="fill:none;stroke:black;stroke-width:-0.21" d="M 431.28 94.15 L 431.34 94.23"/>
    <path id="sk_4_12" style="fill:none;stroke:black;stroke-width:-0.24" d="M 431.30 94.29"/>
    <path id="sk_4_13" style="fill:none;stroke:black;stroke-width:-0.26" d="M 431.11 94.27"/>
    <path id="sk_4_14" style="fill:none;stroke:black;stroke-width:-0.32" d="M 430.98 94.37"/>
    <path id="sk_4_15" style="fill:none;stroke:black;stroke-width:0.05" d="M 430.68 94.40"/>
    <path id="sk_4_16" style="fill:none;stroke:black;stroke-width:0.052916" d="M 430.27 94.42"/>
    <path id="sk_5_0" style="fill:none;stroke:black;stroke-width:0.16" d="M 430.27 94.42 L 622.46 94.42"/>
    <path id="sk_5_1" style="fill:none;stroke:black;stroke-width:0.19" d="M 622.72 94.45 L 623.10 94.48 L 623.58 94.49"/>
    <path id="sk_5_2" style="fill:none;stroke:black;stroke-width:0.21" d="M 624.12 94.50 L 624.73 94.52"/>
    <path id="sk_5_3" style="fill:none;stroke:black;stroke-width:0.24" d="M 625.40 94.54 L 626.14 94.58 L 626.90 94.63 L 627.63 94.70 L 628.31 94.78 L 628.91 94.88"/>
    <path id="sk_5_4" style="fill:none;stroke:black;stroke-width:0.21" d="M 629.45 94.96 L 629.92 95.04 L 630.31 95.11 L 630.63 95.16 L 630.84 95.20 L 630.96 95.22 L 630.96 95.22"/>
    <path id="sk_5_5" style="fill:none;stroke:black;stroke-width:0.19" d="M 630.96 95.22 L 630.65 95.19 L 630.25 95.13 L 629.66 95.02"/>
    <path id="sk_5_6" style="fill:none;stroke:black;stroke-width:0.16" d="M 628.87 94.83 L 627.93 94.57"/>
    <path id="sk_5_7" style="fill:none;stroke:black;stroke-width:0.19" d="M 626.91 94.22 L 625.88 93.78 L 624.95 93.29 L 624.21 92.78 L 623.69 92.30 L 623.39 91.90 L 623.24 91.55 L 623.21 91.27 L 623.25 91.05 L 623.38 90.89 L 623.58 90.80 L 623.86 90.79 L 624.22 90.88 L 624.63 91.05 L 625.08 91.30 L 625.52 91.60"/>
    <path id="sk_5_8" style="fill:none;stroke:black;stroke-width:0.16" d="M 625.93 91.94 L 626.28 92.28 L 626.59 92.63 L 626.85 92.94 L 627.04 93.22 L 627.17 93.45"/>
    <path id="sk_5_9" style="fill:none;stroke:black;stroke-width:0.13" d="M 627.23 93.62"/>
    <path id="sk_5_10" style="fill:none;stroke:black;stroke-width:0.08" d="M 627.23 93.76"/>
    <path id="sk_5_11" style="fill:none;stroke:black;stroke-width:0.07937399999999999" d="M 627.14 93.86"/>
    <path id="sk_6_0" style="fill:none;stroke:black;stroke-width:0.05" d="M 627.14 93.86"/>
    <path id="sk_6_1" style="fill:none;stroke:black;stroke-width:0.16" d="M 627.52 93.86 L 627.90 93.86"/>
    <path id="sk_6_2" style="fill:none;stroke:black;stroke-width:0.19" d="M 628.55 93.95"/>
    <path id="sk_6_3" style="fill:none;stroke:black;stroke-width:0.21" d="M 629.37 94.08 L 630.32 94.23 L 631.36 94.42"/>
    <path id="sk_6_4" style="fill:none;stroke:black;stroke-width:6.51" d="M 632.44 94.62 L 633.53 94.83 L 634.66 95.03 L 635.60 94.27"/>
    <path id="sk_6_5" style="fill:none;stroke:black;stroke-width:6.48" d="M 636.54 646.80 L 637.39 646.77 L 638.16 646.71"/>
    <path id="sk_6_6" style="fill:none;stroke:black;stroke-width:6.46" d="M 638.82 646.61"/>
    <path id="sk_6_7" style="fill:none;stroke:black;stroke-width:0.16" d="M 639.40 646.47"/>
    <path id="sk_6_8" style="fill:none;stroke:black;stroke-width:0.11" d="M 639.85 646.32"/>
    <path id="sk_6_9" style="fill:none;stroke:black;stroke-width:0.05" d="M 640.54 646.55"/>
    <path id="sk_6_10" style="fill:none;stroke:black;stroke-width:0.052916" d="M 640.78 646.38"/>
    <path id="sk_7_0" style="fill:none;stroke:black;stroke-width:0.13" d="M 640.78 646.38"/>
    <path id="sk_7_1" style="fill:none;stroke:black;stroke-width:0.16" d="M 640.94 646.48"/>
    <path id="sk_7_2" style="fill:none;stroke:black;stroke-width:0.19" d="M 641.19 646.62 L 641.53 646.80"/>
    <path id="sk_7_3" style="fill:none;stroke:black;stroke-width:0.21" d="M 641.95 646.99 L 642.42 647.20"/>
    <path id="sk_7_4" style="fill:none;stroke:black;stroke-width:0.24" d="M 642.94 647.41 L 643.50 647.59 L 644.11 647.76 L 644.75 647.91 L 645.38 648.02"/>
    <path id="sk_7_5" style="fill:none;stroke:black;stroke-width:0.21" d="M 646.01 648.10 L 646.58 648.12 L 647.06 648.09 L 647.49 648.01"/>
    <path id="sk_7_6" style="fill:none;stroke:black;stroke-width:0.19" d="M 647.83 647.87 L 648.12 647.68 L 648.35 647.43 L 648.50 647.11 L 648.59 646.73 L 648.59 646.30 L 648.52 645.82 L 648.37 645.33 L 648.13 644.83 L 647.83 644.35"/>
    <path id="sk_7_7" style="fill:none;stroke:black;stroke-width:0.16" d="M 647.47 643.89 L 647.06 643.45"/>
    <path id="sk_7_8" style="fill:none;stroke:black;stroke-width:0.13" d="M 646.64 643.06"/>
    <path id="sk_7_9" style="fill:none;stroke:black;stroke-width:0.08" d="M 646.19 642.73"/>
    <path id="sk_7_10" style="fill:none;stroke:black;stroke-width:0.05" d="M 645.71 642.45"/>
    <path id="sk_7_11" style="fill:none;stroke:black;stroke-width:0.052916" d="M 645.23 642.26"/>
    <path id="sk_8_0" style="fill:none;stroke:black;stroke-width:0.08" d="M 645.23 642.26 L 645.52 642.26 L 645.69 642.08 L 645.90 641.90 L 646.11 641.67 L 646.33 641.39 L 646.57 641.07"/>
    <path id="sk_8_1" style="fill:none;stroke:black;stroke-width:0.05" d="M 646.82 640.71 L 647.08 640.32 L 647.35 639.90 L 647.61 639.49"/>
    <path id="sk_8_2" style="fill:none;stroke:black;stroke-width:0.03" d="M 647.88 639.12"/>
    <path id="sk_8_3" style="fill:none;stroke:black;stroke-width:0.05" d="M 648.14 638.82 L 648.41 638.59"/>
    <path id="sk_8_4" style="fill:none;stroke:black;stroke-width:0.052916" d="M 648.70 638.45"/>
    <path id="sk_9_0" style="fill:none;stroke:black;stroke-width:1.64" d="M 648.70 638.45"/>
    <path id="sk_9_1" style="fill:none;stroke:black;stroke-width:0.16" d="M 253.83 638.45 L 253.83 638.45"/>
    <path id="sk_9_2" style="fill:none;stroke:black;stroke-width:0.13" d="M 253.83 638.45 L 253.83 638.45 L 253.83 638.45"/>
    <path id="sk_9_3" style="fill:none;stroke:black;stroke-width:0.11" d="M 253.68 638.22 L 253.56 638.00 L 253.40 637.70 L 253.19 637.32 L 252.94 636.84 L 252.69 636.31 L 252.42 635.71 L 252.14 635.07"/>
    <path id="sk_9_4" style="fill:none;stroke:black;stroke-width:0.05" d="M 251.84 634.38 L 251.52 633.64"/>
    <path id="sk_9_5" style="fill:none;stroke:black;stroke-width:0.052916" d="M 251.21 632.89"/>
  </g>
</svg>
