<?xml version="1.0" encoding="UTF-8"?>
<svg xmlns="http://www.w3.org/2000/svg" width="210mm" height="148mm" viewBox="0 0 210 148">
  <g id="layer0">
    <path id="sk_0_0" style="fill:none;stroke:black;stroke-width:0.08" d="M 0.00 -0.01 L 609.67 -0.02 L 609.67 -0.03 L 609.67 -0.04 L 609.67 -0.05"/>
    <path id="sk_0_1" style="fill:none;stroke:black;stroke-width:0.11" d="M 609.67 -0.06 L 609.67 -0.07"/>
    <path id="sk_0_2" style="fill:none;stroke:black;stroke-width:0.13" d="M 609.67 -0.18 L 609.67 -0.19"/>
    <path id="sk_0_3" style="fill:none;stroke:black;stroke-width:0.16" d="M 609.77 -0.29 L 609.77 -0.30"/>
    <path id="sk_0_4" style="fill:none;stroke:black;stroke-width:0.19" d="M 609.91 -0.39 L 610.01 -0.42 L 610.13 -0.45"/>
    <path id="sk_0_5" style="fill:none;stroke:black;stroke-width:0.21" d="M 610.29 -0.48 L 610.49 -0.51 L 610.76 -0.54 L 611.10 -0.57"/>
    <path id="sk_0_6" style="fill:none;stroke:black;stroke-width:0.19" d="M 611.53 -0.59 L 612.04 -0.60 L 612.62 -0.60 L 613.25 -0.59 L 613.89 -0.58 L 614.55 -0.57 L 615.19 -0.56 L 615.80 -0.55 L 616.39 -0.54 L 616.96 -0.55 L 617.47 -0.56 L 617.93 -0.57 L 618.31 -0.60 L 618.59 -0.62 L 618.78 -0.65"/>
    <path id="sk_0_7" style="fill:none;stroke:black;stroke-width:0.16" d="M 618.90 -0.68"/>
    <path id="sk_0_8" style="fill:none;stroke:black;stroke-width:0.13" d="M 618.90 -0.69"/>
    <path id="sk_0_9" style="fill:none;stroke:black;stroke-width:0.08" d="M 618.90 -0.70"/>
    <path id="sk_0_10" style="fill:none;stroke:black;stroke-width:0.05" d="M 618.74 -0.68"/>
    <path id="sk_0_11" style="fill:none;stroke:black;stroke-width:0.052916" d="M 618.42 -0.63"/>
    <path id="sk_1_0" style="fill:none;stroke:black;stroke-width:0.08" d="M 618.42 -0.63"/>
    <path id="sk_1_1" style="fill:none;stroke:black;stroke-width:0.11" d="M 130.00 -0.58"/>
    <path id="sk_1_2" style="fill:none;stroke:black;stroke-width:0.13" d="M 129.95 -0.42"/>
    <path id="sk_1_3" style="fill:none;stroke:black;stroke-width:0.16" d="M 129.86 -0.22 L 129.79 -0.04"/>
    <path id="sk_1_4" style="fill:none;stroke:black;stroke-width:0.19" d="M 129.71 0.11 L 129.62 0.23"/>
    <path id="sk_1_5" style="fill:none;stroke:black;stroke-width:0.21" d="M 129.52 0.32 L 129.41 0.38 L 129.30 0.40"/>
    <path id="sk_1_6" style="fill:none;stroke:black;stroke-width:0.24" d="M 129.20 0.38 L 129.10 0.32 L 129.01 0.20 L 128.91 0.02 L 128.80 -0.24 L 128.67 -0.59 L 128.51 -1.02 L 128.35 -1.52"/>
    <path id="sk_1_7" style="fill:none;stroke:black;stroke-width:0.21" d="M 128.16 -2.07 L 127.98 -2.66 L 127.79 -3.28 L 127.60 -3.91 L 127.42 -4.51 L 127.26 -5.08"/>
    <path id="sk_1_8" style="fill:none;stroke:black;stroke-width:0.19" d="M 127.11 -5.62 L 126.98 -6.13 L 126.85 -6.62"/>
    <path id="sk_1_9" style="fill:none;stroke:black;stroke-width:0.16" d="M 126.74 -7.08"/>
    <path id="sk_1_10" style="fill:none;stroke:black;stroke-width:0.13" d="M 126.65 -7.51"/>
    <path id="sk_1_11" style="fill:none;stroke:black;stroke-width:0.11" d="M 126.59 -7.90"/>
    <path id="sk_1_12" style="fill:none;stroke:black;stroke-width:0.08" d="M 126.56 -8.24"/>
    <path id="sk_1_13" style="fill:none;stroke:black;stroke-width:0.05" d="M 126.57 -8.53 L 126.61 -8.78"/>
    <path id="sk_1_14" style="fill:none;stroke:black;stroke-width:0.052916" d="M 126.65 -8.99"/>
    <path id="sk_2_0" style="fill:none;stroke:black;stroke-width:0.08" d="M 126.65 -8.99 L 126.29 94.66"/>
    <path id="sk_2_1" style="fill:none;stroke:black;stroke-width:0.11" d="M 126.14 94.68 L 126.14 94.68"/>
    <path id="sk_2_2" style="fill:none;stroke:black;stroke-width:0.13" d="M 125.99 94.69 L 125.99 94.69"/>
    <path id="sk_2_3" style="fill:none;stroke:black;stroke-width:0.16" d="M 125.86 94.69 L 125.86 94.69"/>
    <path id="sk_2_4" style="fill:none;stroke:black;stroke-width:0.19" d="M 125.74 94.67 L 125.74 94.67"/>
    <path id="sk_2_5" style="fill:none;stroke:black;stroke-width:0.21" d="M 125.62 94.64 L 125.62 94.64 L 125.53 94.59 L 125.53 94.59 L 125.53 94.59 L 125.53 94.59 L 125.44 94.53 L 125.44 94.53"/>
    <path id="sk_2_6" style="fill:none;stroke:black;stroke-width:0.24" d="M 125.44 94.53 L 125.44 94.53 L 125.44 94.53 L 125.44 94.53 L 125.44 94.53 L 125.44 94.53 L 125.44 94.53 L 125.54 94.52 L 125.54 94.52 L 125.63 94.48 L 125.72 94.46 L 125.86 94.42 L 126.05 94.39"/>
    <path id="sk_2_7" style="fill:none;stroke:black;stroke-width:0.21" d="M 126.34 94.33 L 126.72 94.27 L 127.20 94.22 L 127.78 94.16 L 128.42 94.12 L 129.11 94.10 L 129.83 94.09 L 130.54 94.09 L 131.23 94.11 L 131.86 94.11 L 132.43 94.12 L 132.92 94.13 L 133.36 94.13 L 133.72 94.13 L 134.00 94.12 L 134.20 94.11 L 134.31 94.08 L 134.31 94.08 L 134.31 94.08 L 134.20 93.96"/>
    <path id="sk_2_8" style="fill:none;stroke:black;stroke-width:0.24" d="M 134.00 93.89 L 133.69 93.77 L 133.28 93.63 L 132.80 93.44 L 132.34 93.21 L 131.96 92.96 L 131.70 92.69 L 131.57 92.42 L 131.55 92.14 L 131.65 91.89 L 131.82 91.66 L 132.10 91.44"/>
    <path id="sk_2_9" style="fill:none;stroke:black;stroke-width:0.21" d="M 132.47 91.25 L 132.92 91.07 L 133.42 90.92 L 133.94 90.80 L 134.44 90.70 L 134.89 90.63 L 135.30 90.56 L 135.63 90.50 L 135.89 90.44"/>
    <path id="sk_2_10" style="fill:none;stroke:black;stroke-width:0.19" d="M 136.08 90.38 L 136.20 90.32 L 136.20 90.32"/>
    <path id="sk_2_11" style="fill:none;stroke:black;stroke-width:0.16" d="M 136.25 90.21 L 136.25 90.21"/>
    <path id="sk_2_12" style="fill:none;stroke:black;stroke-width:0.13" d="M 136.03 90.06 L 135.80 89.97"/>
    <path id="sk_2_13" style="fill:none;stroke:black;stroke-width:0.11" d="M 135.49 89.87 L 135.15 89.77 L 134.80 89.68"/>
    <path id="sk_2_14" style="fill:none;stroke:black;stroke-width:0.08" d="M 134.44 89.60"/>
    <path id="sk_2_15" style="fill:none;stroke:black;stroke-width:0.05" d="M 134.06 89.54"/>
    <path id="sk_2_16" style="fill:none;stroke:black;stroke-width:0.052916" d="M 133.66 89.50"/>
    <path id="sk_3_0" style="fill:none;stroke:black;stroke-width:0.19" d="M 133.66 89.50"/>
    <path id="sk_3_1" style="fill:none;stroke:black;stroke-width:0.21" d="M 126.99 90.98"/>
    <path id="sk_3_2" style="fill:none;stroke:black;stroke-width:0.19" d="M 126.99 90.98 L 126.99 90.98 L 126.99 90.98 L 126.99 90.98 L 126.99 90.89 L 126.99 90.89 L 127.05 90.70"/>
    <path id="sk_3_3" style="fill:none;stroke:black;stroke-width:0.16" d="M 127.08 90.57"/>
    <path id="sk_3_4" style="fill:none;stroke:black;stroke-width:0.13" d="M 127.11 90.42"/>
    <path id="sk_3_5" style="fill:none;stroke:black;stroke-width:0.11" d="M 127.14 90.24"/>
    <path id="sk_3_6" style="fill:none;stroke:black;stroke-width:0.08" d="M 127.16 90.04"/>
    <path id="sk_3_7" style="fill:none;stroke:black;stroke-width:0.05" d="M 127.17 89.82"/>
    <path id="sk_3_8" style="fill:none;stroke:black;stroke-width:0.052916" d="M 127.31 89.67 L 127.29 89.42"/>
    <path id="sk_4_0" style="fill:none;stroke:black;stroke-width:0.16" d="M 127.29 89.42"/>
    <path id="sk_4_1" style="fill:none;stroke:black;stroke-width:0.21" d="M 128.38 85.91"/>
    <path id="sk_4_2" style="fill:none;stroke:black;stroke-width:0.24" d="M 128.36 86.00 L 128.34 86.10"/>
    <path id="sk_4_3" style="fill:none;stroke:black;stroke-width:0.21" d="M 128.36 86.20 L 128.36 86.20 L 128.45 86.34 L 128.45 86.34 L 128.63 86.49"/>
    <path id="sk_4_4" style="fill:none;stroke:black;stroke-width:0.24" d="M 128.77 86.59 L 128.93 86.68 L 129.12 86.75 L 129.32 86.80 L 129.54 86.81 L 129.80 86.76 L 130.05 86.67 L 130.31 86.53 L 130.57 86.33 L 130.82 86.10 L 131.05 85.84 L 131.27 85.58 L 131.48 85.33 L 131.68 85.12 L 131.88 84.95 L 132.10 84.82 L 132.34 84.75 L 132.60 84.73 L 132.89 84.76 L 133.22 84.86 L 133.57 85.02"/>
    <path id="sk_4_5" style="fill:none;stroke:black;stroke-width:0.21" d="M 133.93 85.21 L 134.29 85.44 L 134.63 85.69 L 134.93 85.95 L 135.19 86.23 L 135.41 86.50 L 135.58 86.76 L 135.70 86.99 L 135.77 87.18"/>
    <path id="sk_4_6" style="fill:none;stroke:black;stroke-width:0.19" d="M 135.80 87.35"/>
    <path id="sk_4_7" style="fill:none;stroke:black;stroke-width:0.16" d="M 135.77 87.49"/>
    <path id="sk_4_8" style="fill:none;stroke:black;stroke-width:0.11" d="M 135.72 87.59"/>
    <path id="sk_4_9" style="fill:none;stroke:black;stroke-width:0.05" d="M 135.72 87.59"/>
    <path id="sk_4_10" style="fill:none;stroke:black;stroke-width:0.052916" d="M 135.57 87.64"/>
    <path id="sk_5_0" style="fill:none;stroke:black;stroke-width:0.13" d="M 135.57 87.64 L 135.57 87.64 L 135.57 87.64"/>
    <path id="sk_5_1" style="fill:none;stroke:black;stroke-width:0.16" d="M 135.57 87.64 L 135.51 87.75"/>
    <path id="sk_5_2" style="fill:none;stroke:black;stroke-width:0.19" d="M 135.51 87.75 L 135.51 87.75 L 135.51 87.75 L 135.60 87.79 L 135.69 87.79"/>
    <path id="sk_5_3" style="fill:none;stroke:black;stroke-width:0.21" d="M 135.82 87.79 L 136.02 87.77 L 136.28 87.74 L 136.60 87.70 L 136.98 87.66"/>
    <path id="sk_5_4" style="fill:none;stroke:black;stroke-width:0.19" d="M 137.37 87.62 L 137.77 87.59 L 138.17 87.56"/>
    <path id="sk_5_5" style="fill:none;stroke:black;stroke-width:0.16" d="M 138.55 87.53 L 138.90 87.51"/>
    <path id="sk_5_6" style="fill:none;stroke:black;stroke-width:0.13" d="M 139.22 87.51"/>
    <path id="sk_5_7" style="fill:none;stroke:black;stroke-width:0.05" d="M 139.51 87.53"/>
    <path id="sk_5_8" style="fill:none;stroke:black;stroke-width:0.052916" d="M 139.72 87.57"/>
    <path id="sk_6_0" style="fill:none;stroke:black;stroke-width:5.13" d="M 139.72 87.57 L 139.72 87.57"/>
    <path id="sk_6_1" style="fill:none;stroke:black;stroke-width:5.11" d="M 139.72 87.57 L 139.72 87.57 L 139.82 87.51 L 139.92 87.44"/>
    <path id="sk_6_2" style="fill:none;stroke:black;stroke-width:5.08" d="M 140.05 87.33 L 140.21 87.20"/>
    <path id="sk_6_3" style="fill:none;stroke:black;stroke-width:5.05" d="M 140.39 87.07"/>
    <path id="sk_6_4" style="fill:none;stroke:black;stroke-width:0.08" d="M 140.55 86.91"/>
    <path id="sk_6_5" style="fill:none;stroke:black;stroke-width:0.07937399999999999" d="M 140.93 86.94"/>
    <path id="sk_7_0" style="fill:none;stroke:black;stroke-width:0.19" d="M 140.93 86.94 L 140.93 86.94 L 10.35 86.94"/>
    <path id="sk_7_1" style="fill:none;stroke:black;stroke-width:0.21" d="M 10.44 87.17 L 10.59 87.46 L 10.77 87.73 L 10.97 87.97 L 11.18 88.17 L 11.37 88.30 L 11.54 88.35 L 11.71 88.34 L 11.88 88.25 L 12.05 88.08 L 12.22 87.85 L 12.38 87.54 L 12.53 87.16 L 12.68 86.77 L 12.83 86.39 L 12.99 86.04 L 13.15 85.77 L 13.31 85.56 L 13.49 85.44 L 13.68 85.41 L 13.92 85.47 L 14.21 85.61"/>
    <path id="sk_7_2" style="fill:none;stroke:black;stroke-width:0.24" d="M 14.54 85.84 L 14.92 86.14 L 15.30 86.51 L 15.69 86.91"/>
    <path id="sk_7_3" style="fill:none;stroke:black;stroke-width:0.21" d="M 16.09 87.34 L 16.46 87.77 L 16.79 88.17 L 17.07 88.54"/>
    <path id="sk_7_4" style="fill:none;stroke:black;stroke-width:0.19" d="M 17.26 88.84"/>
    <path id="sk_7_5" style="fill:none;stroke:black;stroke-width:0.16" d="M 17.36 89.07"/>
    <path id="sk_7_6" style="fill:none;stroke:black;stroke-width:0.13" d="M 17.39 89.25"/>
    <path id="sk_7_7" style="fill:none;stroke:black;stroke-width:0.05" d="M 17.32 89.34"/>
    <path id="sk_7_8" style="fill:none;stroke:black;stroke-width:0.052916" d="M 17.18 89.35"/>
    <path id="sk_8_0" style="fill:none;stroke:black;stroke-width:0.19" d="M 17.18 89.35 L 17.18 89.35 L 16.73 89.35"/>
    <path id="sk_8_1" style="fill:none;stroke:black;stroke-width:0.21" d="M 16.14 89.34"/>
    <path id="sk_8_2" style="fill:none;stroke:black;stroke-width:0.24" d="M 15.49 89.30 L 14.75 89.21"/>
    <path id="sk_8_3" style="fill:none;stroke:black;stroke-width:0.21" d="M 13.93 89.08 L 13.02 88.92 L 12.03 88.70 L 11.01 88.46 L 10.01 88.17 L 9.10 87.87 L 8.29 87.56 L 7.60 87.25 L 7.00 86.95 L 6.48 86.67 L 6.05 86.40 L 5.69 86.17 L 5.43 85.97 L 5.27 85.80 L 5.21 85.66 L 5.23 85.56 L 5.28 85.50 L 5.34 85.48 L 5.42 85.51 L 5.47 85.57"/>
    <path id="sk_8_4" style="fill:none;stroke:black;stroke-width:0.19" d="M 5.51 85.66"/>
    <path id="sk_8_5" style="fill:none;stroke:black;stroke-width:0.13" d="M 5.53 85.78"/>
    <path id="sk_8_6" style="fill:none;stroke:black;stroke-width:0.11" d="M 5.50 85.95"/>
    <path id="sk_8_7" style="fill:none;stroke:black;stroke-width:0.05" d="M 5.41 86.15"/>
    <path id="sk_8_8" style="fill:none;stroke:black;stroke-width:0.052916" d="M 5.23 86.38"/>
    <path id="sk_9_0" style="fill:none;stroke:black;stroke-width:0.24" d="M 5.23 86.38 L 5.23 86.38 L 330.75 86.38 L 330.35 86.38"/>
    <path id="sk_9_1" style="fill:none;stroke:black;stroke-width:0.26" d="M 329.95 86.38"/>
    <path id="sk_9_2" style="fill:none;stroke:black;stroke-width:0.24" d="M 329.45 86.33 L 329.05 86.33 L 328.66 86.20 L 328.26 86.03"/>
    <path id="sk_9_3" style="fill:none;stroke:black;stroke-width:0.21" d="M 327.85 85.78 L 327.41 85.44 L 326.94 85.03"/>
    <path id="sk_9_4" style="fill:none;stroke:black;stroke-width:0.16" d="M 326.44 84.56"/>
    <path id="sk_9_5" style="fill:none;stroke:black;stroke-width:0.13" d="M 325.90 84.04"/>
    <path id="sk_9_6" style="fill:none;stroke:black;stroke-width:0.08" d="M 325.33 83.48"/>
    <path id="sk_9_7" style="fill:none;stroke:black;stroke-width:0.07937399999999999" d="M 324.73 82.84"/>
    <path id="sk_10_0" style="fill:none;stroke:black;stroke-width:0.13" d="M 324.73 82.84 L 324.73 82.84 L 20.67 82.84"/>
    <path id="sk_10_1" style="fill:none;stroke:black;stroke-width:0.16" d="M 20.68 82.94"/>
    <path id="sk_10_2" style="fill:none;stroke:black;stroke-width:0.19" d="M 20.69 83.07"/>
    <path id="sk_10_3" style="fill:none;stroke:black;stroke-width:0.21" d="M 20.73 83.22"/>
    <path id="sk_10_4" style="fill:none;stroke:black;stroke-width:0.24" d="M 20.77 83.38 L 20.83 83.55 L 20.90 83.75"/>
    <path id="sk_10_5" style="fill:none;stroke:black;stroke-width:0.21" d="M 20.99 83.96 L 21.10 84.20 L 21.24 84.47 L 21.42 84.75 L 21.63 85.07 L 21.84 85.38 L 22.06 85.70 L 22.27 85.99 L 22.45 86.21 L 22.61 86.39 L 22.75 86.49 L 22.87 86.54 L 23.00 86.53 L 23.14 86.44 L 23.33 86.26 L 23.54 85.99 L 23.77 85.65 L 24.00 85.26 L 24.20 84.88 L 24.40 84.51 L 24.58 84.19 L 24.74 83.95 L 24.91 83.76 L 25.08 83.66"/>
    <path id="sk_10_6" style="fill:none;stroke:black;stroke-width:0.24" d="M 25.26 83.65 L 25.46 83.73 L 25.66 83.89 L 25.89 84.11 L 26.13 84.40"/>
    <path id="sk_10_7" style="fill:none;stroke:black;stroke-width:0.21" d="M 26.39 84.74 L 26.64 85.12 L 26.87 85.54"/>
    <path id="sk_10_8" style="fill:none;stroke:black;stroke-width:0.19" d="M 27.04 85.97 L 27.17 86.39"/>
    <path id="sk_10_9" style="fill:none;stroke:black;stroke-width:0.13" d="M 27.23 86.81"/>
    <path id="sk_10_10" style="fill:none;stroke:black;stroke-width:0.11" d="M 27.23 87.19"/>
    <path id="sk_10_11" style="fill:none;stroke:black;stroke-width:0.05" d="M 27.17 87.52"/>
    <path id="sk_10_12" style="fill:none;stroke:black;stroke-width:0.052916" d="M 27.04 87.79"/>
    <path id="sk_11_0" style="fill:none;stroke:black;stroke-width:2.59" d="M 27.04 87.79 L 27.04 87.79"/>
    <path id="sk_11_1" style="fill:none;stroke:black;stroke-width:0.16" d="M 27.55 88.12"/>
    <path id="sk_11_2" style="fill:none;stroke:black;stroke-width:0.13" d="M 27.89 88.45 L 28.13 88.75 L 28.26 88.97 L 28.30 89.10 L 28.23 89.14"/>
    <path id="sk_11_3" style="fill:none;stroke:black;stroke-width:0.16" d="M 28.10 89.13 L 27.94 89.04 L 27.83 88.92 L 27.85 88.78 L 28.00 88.64 L 28.27 88.56 L 28.66 88.53 L 29.15 88.59"/>
    <path id="sk_11_4" style="fill:none;stroke:black;stroke-width:0.13" d="M 29.74 88.70 L 30.42 88.88 L 31.20 89.10 L 32.06 89.36 L 33.01 89.67 L 34.06 90.02 L 35.14 90.44 L 36.24 90.90"/>
    <path id="sk_11_5" style="fill:none;stroke:black;stroke-width:0.11" d="M 37.33 91.41"/>
    <path id="sk_11_6" style="fill:none;stroke:black;stroke-width:0.08" d="M 38.37 91.95"/>
    <path id="sk_11_7" style="fill:none;stroke:black;stroke-width:0.05" d="M 39.36 92.50 L 40.29 93.07"/>
    <path id="sk_11_8" style="fill:none;stroke:black;stroke-width:0.052916" d="M 41.15 93.66"/>
    <path id="sk_12_0" style="fill:none;stroke:black;stroke-width:0.16" d="M 41.15 93.66 L 41.15 93.66"/>
    <path id="sk_12_1" style="fill:none;stroke:black;stroke-width:0.19" d="M 41.14 93.52"/>
    <path id="sk_12_2" style="fill:none;stroke:black;stroke-width:0.21" d="M 41.12 93.40"/>
    <path id="sk_12_3" style="fill:none;stroke:black;stroke-width:0.19" d="M 41.10 93.24 L 41.11 93.04 L 41.13 92.79 L 41.15 92.49 L 41.19 92.14 L 41.22 91.75 L 41.25 91.34 L 41.29 90.93"/>
    <path id="sk_12_4" style="fill:none;stroke:black;stroke-width:0.13" d="M 41.35 90.53"/>
    <path id="sk_12_5" style="fill:none;stroke:black;stroke-width:0.11" d="M 41.42 90.16"/>
    <path id="sk_12_6" style="fill:none;stroke:black;stroke-width:0.05" d="M 41.49 89.84"/>
    <path id="sk_12_7" style="fill:none;stroke:black;stroke-width:0.052916" d="M 41.54 89.58"/>
    <path id="sk_13_0" style="fill:none;stroke:black;stroke-width:0.16" d="M 41.54 89.58 L 41.54 89.58"/>
    <path id="sk_13_1" style="fill:none;stroke:black;stroke-width:0.19" d="M 41.70 89.66"/>
    <path id="sk_13_2" style="fill:none;stroke:black;stroke-width:0.21" d="M 41.93 89.76"/>
    <path id="sk_13_3" style="fill:none;stroke:black;stroke-width:0.24" d="M 42.21 89.89 L 42.55 90.04 L 42.98 90.22 L 43.48 90.43"/>
    <path id="sk_13_4" style="fill:none;stroke:black;stroke-width:0.21" d="M 44.04 90.64 L 44.64 90.88 L 45.26 91.14 L 45.85 91.40"/>
    <path id="sk_13_5" style="fill:none;stroke:black;stroke-width:0.19" d="M 46.37 91.64 L 46.80 91.86 L 47.16 92.04 L 47.45 92.20"/>
    <path id="sk_13_6" style="fill:none;stroke:black;stroke-width:0.16" d="M 47.68 92.33"/>
    <path id="sk_13_7" style="fill:none;stroke:black;stroke-width:0.13" d="M 47.85 92.44"/>
    <path id="sk_13_8" style="fill:none;stroke:black;stroke-width:0.08" d="M 47.93 92.53"/>
    <path id="sk_13_9" style="fill:none;stroke:black;stroke-width:0.05" d="M 47.93 92.53"/>
    <path id="sk_13_10" style="fill:none;stroke:black;stroke-width:0.052916" d="M 47.80 92.61 L 47.59 92.56"/>
    <path id="sk_14_0" style="fill:none;stroke:black;stroke-width:0.11" d="M 47.59 92.56 L 47.59 92.56"/>
    <path id="sk_14_1" style="fill:none;stroke:black;stroke-width:0.13" d="M 48.08 40.03"/>
    <path id="sk_14_2" style="fill:none;stroke:black;stroke-width:0.16" d="M 48.71 40.08"/>
    <path id="sk_14_3" style="fill:none;stroke:black;stroke-width:0.19" d="M 49.40 40.14"/>
    <path id="sk_14_4" style="fill:none;stroke:black;stroke-width:0.21" d="M 50.12 40.20"/>
    <path id="sk_14_5" style="fill:none;stroke:black;stroke-width:0.19" d="M 50.88 40.26 L 51.65 40.32 L 52.45 40.38 L 53.27 40.44 L 54.07 40.48 L 54.85 40.51 L 55.57 40.52 L 56.21 40.49 L 56.70 40.49"/>
    <path id="sk_14_6" style="fill:none;stroke:black;stroke-width:0.16" d="M 57.32 40.39"/>
    <path id="sk_14_7" style="fill:none;stroke:black;stroke-width:0.13" d="M 57.81 40.30 L 58.23 40.19"/>
    <path id="sk_14_8" style="fill:none;stroke:black;stroke-width:0.11" d="M 58.58 40.02 L 58.83 39.81"/>
    <path id="sk_14_9" style="fill:none;stroke:black;stroke-width:0.13" d="M 59.02 39.54 L 59.18 39.26 L 59.34 38.95"/>
    <path id="sk_14_10" style="fill:none;stroke:black;stroke-width:0.16" d="M 59.57 38.64 L 59.87 38.36"/>
    <path id="sk_14_11" style="fill:none;stroke:black;stroke-width:0.19" d="M 60.27 38.10 L 60.78 37.88"/>
    <path id="sk_14_12" style="fill:none;stroke:black;stroke-width:0.21" d="M 61.36 37.71 L 62.03 37.56"/>
    <path id="sk_14_13" style="fill:none;stroke:black;stroke-width:0.24" d="M 62.75 37.46 L 63.55 37.39"/>
    <path id="sk_14_14" style="fill:none;stroke:black;stroke-width:0.21" d="M 64.39 37.36 L 65.28 37.37 L 66.22 37.42 L 67.15 37.50 L 68.08 37.61 L 69.00 37.74"/>
    <path id="sk_14_15" style="fill:none;stroke:black;stroke-width:0.19" d="M 69.90 37.90"/>
    <path id="sk_14_16" style="fill:none;stroke:black;stroke-width:0.13" d="M 70.76 38.07"/>
    <path id="sk_14_17" style="fill:none;stroke:black;stroke-width:0.11" d="M 71.58 38.27"/>
    <path id="sk_14_18" style="fill:none;stroke:black;stroke-width:0.05" d="M 72.31 38.46"/>
    <path id="sk_14_19" style="fill:none;stroke:black;stroke-width:0.052916" d="M 72.92 38.63"/>
    <path id="sk_15_0" style="fill:none;stroke:black;stroke-width:0.08" d="M 72.92 38.63 L 72.92 38.63 L 72.92 38.63 L 72.92 38.63"/>
    <path id="sk_15_1" style="fill:none;stroke:black;stroke-width:0.11" d="M 72.86 38.74 L 72.86 38.74"/>
    <path id="sk_15_2" style="fill:none;stroke:black;stroke-width:0.13" d="M 72.86 38.74 L 72.86 38.74"/>
    <path id="sk_15_3" style="fill:none;stroke:black;stroke-width:0.16" d="M 73.02 38.81 L 73.16 38.79 L 73.37 38.75"/>
    <path id="sk_15_4" style="fill:none;stroke:black;stroke-width:0.19" d="M 73.66 38.71 L 74.03 38.66 L 74.46 38.63"/>
    <path id="sk_15_5" style="fill:none;stroke:black;stroke-width:0.21" d="M 74.94 38.62 L 75.43 38.63 L 75.92 38.66"/>
    <path id="sk_15_6" style="fill:none;stroke:black;stroke-width:0.19" d="M 76.39 38.73 L 76.83 38.83 L 77.25 38.95"/>
    <path id="sk_15_7" style="fill:none;stroke:black;stroke-width:0.16" d="M 77.60 39.07 L 77.89 39.18 L 78.12 39.28 L 78.26 39.37 L 78.26 39.37"/>
    <path id="sk_15_8" style="fill:none;stroke:black;stroke-width:0.19" d="M 78.34 39.47 L 78.34 39.47 L 78.09 39.48 L 77.84 39.44 L 77.47 39.35 L 76.99 39.22 L 76.42 39.00 L 75.74 38.73 L 74.98 38.38 L 74.20 37.96 L 73.46 37.49 L 72.81 36.97 L 72.32 36.47 L 72.00 35.97 L 71.80 35.51 L 71.71 35.12"/>
    <path id="sk_15_9" style="fill:none;stroke:black;stroke-width:0.16" d="M 71.70 34.79 L 71.76 34.55 L 71.86 34.40 L 72.03 34.34 L 72.25 34.37 L 72.54 34.49 L 72.91 34.69 L 73.32 34.96 L 73.77 35.29 L 74.21 35.65 L 74.59 36.01 L 74.91 36.36"/>
    <path id="sk_15_10" style="fill:none;stroke:black;stroke-width:0.13" d="M 75.15 36.69 L 75.31 36.99"/>
    <path id="sk_15_11" style="fill:none;stroke:black;stroke-width:0.11" d="M 75.40 37.26"/>
    <path id="sk_15_12" style="fill:none;stroke:black;stroke-width:0.08" d="M 75.43 37.46"/>
    <path id="sk_15_13" style="fill:none;stroke:black;stroke-width:0.05" d="M 75.40 37.57"/>
    <path id="sk_15_14" style="fill:none;stroke:black;stroke-width:0.03" d="M 75.31 37.61"/>
    <path id="sk_15_15" style="fill:none;stroke:black;stroke-width:0.026458" d="M 75.18 37.57 L 75.04 37.47 L 74.91 37.32"/>
    <path id="sk_16_0" style="fill:none;stroke:black;stroke-width:0.11" d="M 0.00 37.31"/>
    <path id="sk_16_1" style="fill:none;stroke:black;stroke-width:0.13" d="M 0.00 37.30"/>
    <path id="sk_16_2" style="fill:none;stroke:black;stroke-width:0.19" d="M -0.03 37.40"/>
    <path id="sk_16_3" style="fill:none;stroke:black;stroke-width:0.21" d="M -0.03 37.39 L -0.03 37.38"/>
    <path id="sk_16_4" style="fill:none;stroke:black;stroke-width:0.19" d="M 0.11 37.47 L 0.22 37.48 L 0.39 37.51 L 0.61 37.55 L 0.89 37.62 L 1.25 37.69 L 1.65 37.79 L 2.11 37.90 L 2.58 38.02 L 3.04 38.17 L 3.49 38.32"/>
    <path id="sk_16_5" style="fill:none;stroke:black;stroke-width:0.16" d="M 3.92 38.48"/>
    <path id="sk_16_6" style="fill:none;stroke:black;stroke-width:0.11" d="M 4.32 38.66"/>
    <path id="sk_16_7" style="fill:none;stroke:black;stroke-width:0.08" d="M 4.66 38.83"/>
    <path id="sk_16_8" style="fill:none;stroke:black;stroke-width:0.05" d="M 4.93 38.97"/>
    <path id="sk_16_9" style="fill:none;stroke:black;stroke-width:0.052916" d="M 5.09 39.10 L 5.14 39.18"/>
    <path id="sk_17_0" style="fill:none;stroke:black;stroke-width:0.11" d="M 0.00 39.17 L 0.50 39.16"/>
    <path id="sk_17_1" style="fill:none;stroke:black;stroke-width:0.13" d="M 1.12 39.15"/>
    <path id="sk_17_2" style="fill:none;stroke:black;stroke-width:0.16" d="M 1.62 39.14"/>
    <path id="sk_17_3" style="fill:none;stroke:black;stroke-width:0.19" d="M 2.27 39.27 L 2.86 39.32"/>
    <path id="sk_17_4" style="fill:none;stroke:black;stroke-width:0.16" d="M 3.51 39.37 L 4.21 39.42 L 4.94 39.49 L 5.71 39.56 L 6.49 39.65 L 7.30 39.74 L 8.14 39.83 L 9.00 39.92 L 9.87 39.99 L 10.72 40.04 L 11.56 40.06 L 12.36 40.05 L 13.12 40.00 L 13.85 39.92 L 14.53 39.78 L 15.18 39.59 L 15.78 39.34 L 16.32 39.02 L 16.80 38.62"/>
    <path id="sk_17_5" style="fill:none;stroke:black;stroke-width:0.13" d="M 17.22 38.16 L 17.57 37.67"/>
    <path id="sk_17_6" style="fill:none;stroke:black;stroke-width:0.11" d="M 17.85 37.17"/>
    <path id="sk_17_7" style="fill:none;stroke:black;stroke-width:0.08" d="M 18.09 36.65 L 18.30 36.15"/>
    <path id="sk_17_8" style="fill:none;stroke:black;stroke-width:0.05" d="M 18.50 35.65 L 18.71 35.18 L 18.93 34.76 L 19.18 34.38 L 19.44 34.07"/>
    <path id="sk_17_9" style="fill:none;stroke:black;stroke-width:0.052916" d="M 19.72 33.86 L 20.01 33.71 L 20.31 33.66 L 20.65 33.70 L 21.01 33.82 L 21.40 34.00"/>
    <path id="sk_18_0" style="fill:none;stroke:black;stroke-width:0.11" d="M 0.00 33.99"/>
    <path id="sk_18_1" style="fill:none;stroke:black;stroke-width:0.16" d="M 0.09 33.98"/>
    <path id="sk_18_2" style="fill:none;stroke:black;stroke-width:0.21" d="M 0.18 33.97"/>
    <path id="sk_18_3" style="fill:none;stroke:black;stroke-width:0.24" d="M 0.27 33.96 L 0.36 33.95"/>
    <path id="sk_18_4" style="fill:none;stroke:black;stroke-width:0.21" d="M 0.49 33.80 L 0.58 33.79 L 0.71 33.59 L 0.81 33.46 L 0.90 33.30"/>
    <path id="sk_18_5" style="fill:none;stroke:black;stroke-width:0.19" d="M 0.99 33.11 L 1.08 32.88"/>
    <path id="sk_18_6" style="fill:none;stroke:black;stroke-width:0.16" d="M 1.17 32.62"/>
    <path id="sk_18_7" style="fill:none;stroke:black;stroke-width:0.13" d="M 0.20 31.48"/>
    <path id="sk_18_8" style="fill:none;stroke:black;stroke-width:0.13229" d="M -0.77 30.36 L -1.69 29.33 L -2.68 28.27"/>
    <path id="sk_19_0" style="fill:none;stroke:black;stroke-width:2.65" d="M 0.00 27.62"/>
    <path id="sk_19_1" style="fill:none;stroke:black;stroke-width:2.67" d="M 0.50 25.90 L 1.13 24.02"/>
    <path id="sk_19_2" style="fill:none;stroke:black;stroke-width:2.70" d="M 1.71 22.18 L 2.26 20.32"/>
    <path id="sk_19_3" style="fill:none;stroke:black;stroke-width:2.73" d="M 2.81 18.44"/>
    <path id="sk_19_4" style="fill:none;stroke:black;stroke-width:2.70" d="M 3.34 16.51 L 3.86 14.52 L 4.38 12.47"/>
    <path id="sk_19_5" style="fill:none;stroke:black;stroke-width:2.67" d="M 4.87 10.38 L 5.34 8.23 L 5.78 6.06"/>
    <path id="sk_19_6" style="fill:none;stroke:black;stroke-width:0.16" d="M 6.17 3.83"/>
    <path id="sk_19_7" style="fill:none;stroke:black;stroke-width:0.13" d="M 6.51 1.58"/>
    <path id="sk_19_8" style="fill:none;stroke:black;stroke-width:0.11" d="M 6.82 -0.69"/>
    <path id="sk_19_9" style="fill:none;stroke:black;stroke-width:0.08" d="M 7.11 -2.94"/>
    <path id="sk_19_10" style="fill:none;stroke:black;stroke-width:0.05" d="M 7.42 -5.15"/>
    <path id="sk_19_11" style="fill:none;stroke:black;stroke-width:0.052916" d="M 7.75 -7.30 L 8.10 -9.40"/>
  </g>
</svg>
